<?xml version="1.0" encoding="UTF-8"?> <svg xmlns="http://www.w3.org/2000/svg" width="90" height="144" viewBox="0 0 90 144" fill="none"><path d="M36.5773 2.32787C36.8905 1.57015 36.3392 0.736667 35.5247 0.736667H23.3072C22.6765 0.736667 22.1669 1.25023 22.1669 1.88587C22.1669 2.5215 22.6765 3.03928 23.3072 3.03928H35.5247C35.9841 3.03928 36.4018 2.75724 36.5773 2.33208" fill="#3B3D47"></path><path d="M40.6414 0.736667C40.09 0.736667 39.593 1.06922 39.38 1.57857L26.9411 31.281C26.6571 31.9629 27.1541 32.7164 27.8851 32.7164H27.9018C28.4531 32.7164 28.9502 32.3839 29.1632 31.8745L41.5896 2.17211C41.8736 1.49017 41.3765 0.736667 40.6414 0.736667Z" fill="#3B3D47"></path><path d="M63.0046 41.0555H43.394C42.7633 41.0555 42.2495 41.569 42.2495 42.2047C42.2495 42.8403 42.7591 43.3581 43.394 43.3581H52.0611V54.2481C52.0611 54.8838 52.5707 55.4015 53.2014 55.4015C53.8321 55.4015 54.3458 54.888 54.3458 54.2481V43.3581H63.0088C63.6395 43.3581 64.1491 42.8445 64.1491 42.2047C64.1491 41.5648 63.6395 41.0555 63.0088 41.0555" fill="#3B3D47"></path><path d="M53.1972 57.822C52.5665 57.822 52.0569 58.3356 52.0569 58.9754V71.8776C52.0569 72.5132 52.5665 73.031 53.1972 73.031C53.8279 73.031 54.3417 72.5132 54.3417 71.8776V58.9754C54.3417 58.3398 53.8279 57.822 53.1972 57.822Z" fill="#3B3D47"></path><path d="M69.9341 57.822C69.2908 57.822 68.7687 58.3482 68.7687 58.9965V71.8524C68.7687 72.5006 69.2908 73.0268 69.9341 73.0268C70.5773 73.0268 71.0995 72.5006 71.0995 71.8524V58.9965C71.0995 58.3482 70.5773 57.822 69.9341 57.822Z" fill="#3B3D47"></path><path d="M69.9341 41.0597C69.2908 41.0597 68.7687 41.5859 68.7687 42.2341V54.2271C68.7687 54.8753 69.2908 55.4015 69.9341 55.4015C70.5773 55.4015 71.0995 54.8753 71.0995 54.2271V42.2341C71.0995 41.5859 70.5773 41.0597 69.9341 41.0597Z" fill="#3B3D47"></path><path d="M88.8597 41.0555C88.229 41.0555 87.7152 41.569 87.7152 42.2047V55.4352H73.4302C72.7869 55.4352 72.2648 55.9614 72.2648 56.6097C72.2648 57.2579 72.7869 57.7841 73.4302 57.7841H87.7152V71.8776C87.7152 72.5132 88.229 73.0268 88.8597 73.0268C89.4904 73.0268 90 72.5132 90 71.8776V42.2089C90 41.5732 89.4904 41.0597 88.8597 41.0597" fill="#3B3D47"></path><path d="M14.2934 2.39522C12.7396 0.875581 10.6846 0 8.49167 0C6.29879 0 4.20198 0.875581 2.60222 2.39522C0.914745 3.96116 0 6.02804 0 8.23804C0 9.38724 0.275676 10.5364 0.776906 11.5972C1.23219 12.6075 1.9172 13.5294 2.786 14.2661C3.24964 14.6954 3.96807 14.6534 4.38158 14.1777L4.42753 14.1229C4.82434 13.6641 4.78257 12.9695 4.33982 12.557L4.29387 12.5149C3.01573 11.4078 2.28477 9.84607 2.28477 8.23383C2.28477 5.01354 5.11672 2.29419 8.49585 2.29419C11.875 2.29419 14.4312 4.91672 14.7988 8.32223L14.8155 8.48219C14.874 9.05468 15.3543 9.49248 15.9308 9.48827H15.9934C16.645 9.48827 17.1588 8.91998 17.1003 8.2675L17.0836 8.0907C16.8539 5.8807 15.8514 3.85592 14.2976 2.3868" fill="#3B3D47"></path><path d="M15.9015 30.418H3.43342C6.34891 26.5621 13.2366 17.2633 15.9433 13.5968C16.4069 12.9695 15.96 12.0771 15.1831 12.0771C14.8698 12.0771 14.5733 12.2245 14.3853 12.4728L0.747668 30.3254C0.701722 30.3843 0.67666 30.4601 0.67666 30.5359V32.426C0.67666 32.5859 0.806145 32.7164 0.964867 32.7164H15.9015C16.5322 32.7164 17.0418 32.2029 17.0418 31.563C17.0418 30.9232 16.5322 30.4138 15.9015 30.4138" fill="#3B3D47"></path><path d="M22.9897 54.0082L23.019 54.0166C23.6288 54.1513 24.2345 53.7682 24.3765 53.1579L26.6571 43.3918C26.6571 43.3918 26.678 43.3623 26.6988 43.3623H35.9799C36.6107 43.3623 37.1244 42.8487 37.1244 42.2089C37.1244 41.569 36.6107 41.0597 35.9799 41.0597H24.9111C24.861 41.0597 24.8192 41.0934 24.8067 41.1439L22.1209 52.6232C21.9748 53.2463 22.3632 53.8693 22.9856 54.0082" fill="#3B3D47"></path><path d="M28.0522 51.8824C27.4632 51.794 26.9035 52.1855 26.7657 52.7706V52.7916C26.6111 53.4357 27.0455 54.0503 27.693 54.1597C32.0495 54.8922 34.9858 58.2135 35.1112 62.1789C35.249 66.6452 31.8239 70.5558 27.6219 70.6947C23.42 70.8336 19.7693 67.1966 19.5856 62.7345C19.5688 62.1031 19.0426 61.6064 18.416 61.6316H18.3784C17.7644 61.6569 17.2841 62.1747 17.3008 62.7935V62.8229C17.3927 65.4918 18.533 68.1143 20.4502 70.0044C22.4175 72.0755 25.0197 73.132 27.7138 73.0394C30.4539 72.9468 32.9183 71.705 34.7436 69.495C36.5271 67.4702 37.4836 64.7551 37.3917 62.0863C37.2999 59.3711 36.2055 56.8412 34.2424 54.9974C32.6008 53.3473 30.4748 52.2486 28.048 51.8782" fill="#3B3D47"></path><path d="M60.8159 2.32787C61.1292 1.57015 60.5778 0.736667 59.7633 0.736667H47.5458C46.9151 0.736667 46.4055 1.25023 46.4055 1.88587C46.4055 2.5215 46.9151 3.03928 47.5458 3.03928H59.7633C60.2228 3.03928 60.6405 2.75724 60.8159 2.33208" fill="#3B3D47"></path><path d="M64.88 0.736667C64.3287 0.736667 63.8316 1.06922 63.6186 1.57857L51.1797 31.281C50.8957 31.9629 51.3928 32.7164 52.1279 32.7164H52.1446C52.696 32.7164 53.193 32.3839 53.406 31.8745L65.824 2.17211C66.108 1.49017 65.611 0.736667 64.8759 0.736667" fill="#3B3D47"></path><path d="M36.5773 2.32787C36.8905 1.57015 36.3392 0.736667 35.5247 0.736667H23.3072C22.6765 0.736667 22.1669 1.25023 22.1669 1.88587C22.1669 2.5215 22.6765 3.03928 23.3072 3.03928H35.5247C35.9841 3.03928 36.4018 2.75724 36.5773 2.33208" fill="#3B3D47"></path><path d="M40.6414 0.736667C40.09 0.736667 39.593 1.06922 39.38 1.57857L26.9411 31.281C26.6571 31.9629 27.1541 32.7164 27.8851 32.7164H27.9018C28.4531 32.7164 28.9502 32.3839 29.1632 31.8745L41.5896 2.17211C41.8736 1.49017 41.3765 0.736667 40.6414 0.736667Z" fill="#3B3D47"></path><path d="M63.0046 41.0555H43.394C42.7633 41.0555 42.2495 41.569 42.2495 42.2047C42.2495 42.8403 42.7591 43.3581 43.394 43.3581H52.0611V54.2481C52.0611 54.8838 52.5707 55.4015 53.2014 55.4015C53.8321 55.4015 54.3458 54.888 54.3458 54.2481V43.3581H63.0088C63.6395 43.3581 64.1491 42.8445 64.1491 42.2047C64.1491 41.5648 63.6395 41.0555 63.0088 41.0555" fill="#3B3D47"></path><path d="M53.1972 57.822C52.5665 57.822 52.0569 58.3356 52.0569 58.9754V71.8776C52.0569 72.5132 52.5665 73.031 53.1972 73.031C53.8279 73.031 54.3417 72.5132 54.3417 71.8776V58.9754C54.3417 58.3398 53.8279 57.822 53.1972 57.822Z" fill="#3B3D47"></path><path d="M69.9341 57.822C69.2908 57.822 68.7687 58.3482 68.7687 58.9965V71.8524C68.7687 72.5006 69.2908 73.0268 69.9341 73.0268C70.5773 73.0268 71.0995 72.5006 71.0995 71.8524V58.9965C71.0995 58.3482 70.5773 57.822 69.9341 57.822Z" fill="#3B3D47"></path><path d="M69.9341 41.0597C69.2908 41.0597 68.7687 41.5859 68.7687 42.2341V54.2271C68.7687 54.8753 69.2908 55.4015 69.9341 55.4015C70.5773 55.4015 71.0995 54.8753 71.0995 54.2271V42.2341C71.0995 41.5859 70.5773 41.0597 69.9341 41.0597Z" fill="#3B3D47"></path><path d="M88.8597 41.0555C88.229 41.0555 87.7152 41.569 87.7152 42.2047V55.4352H73.4302C72.7869 55.4352 72.2648 55.9614 72.2648 56.6097C72.2648 57.2579 72.7869 57.7841 73.4302 57.7841H87.7152V71.8776C87.7152 72.5132 88.229 73.0268 88.8597 73.0268C89.4904 73.0268 90 72.5132 90 71.8776V42.2089C90 41.5732 89.4904 41.0597 88.8597 41.0597" fill="#3B3D47"></path><path d="M14.2934 2.39522C12.7396 0.875581 10.6846 0 8.49167 0C6.29879 0 4.20198 0.875581 2.60222 2.39522C0.914745 3.96116 0 6.02804 0 8.23804C0 9.38724 0.275676 10.5364 0.776906 11.5972C1.23219 12.6075 1.9172 13.5294 2.786 14.2661C3.24964 14.6954 3.96807 14.6534 4.38158 14.1777L4.42753 14.1229C4.82434 13.6641 4.78257 12.9695 4.33982 12.557L4.29387 12.5149C3.01573 11.4078 2.28477 9.84607 2.28477 8.23383C2.28477 5.01354 5.11672 2.29419 8.49585 2.29419C11.875 2.29419 14.4312 4.91672 14.7988 8.32223L14.8155 8.48219C14.874 9.05468 15.3543 9.49248 15.9308 9.48827H15.9934C16.645 9.48827 17.1588 8.91998 17.1003 8.2675L17.0836 8.0907C16.8539 5.8807 15.8514 3.85592 14.2976 2.3868" fill="#3B3D47"></path><path d="M15.9015 30.418H3.43342C6.34891 26.5621 13.2366 17.2633 15.9433 13.5968C16.4069 12.9695 15.96 12.0771 15.1831 12.0771C14.8698 12.0771 14.5733 12.2245 14.3853 12.4728L0.747668 30.3254C0.701722 30.3843 0.67666 30.4601 0.67666 30.5359V32.426C0.67666 32.5859 0.806145 32.7164 0.964867 32.7164H15.9015C16.5322 32.7164 17.0418 32.2029 17.0418 31.563C17.0418 30.9232 16.5322 30.4138 15.9015 30.4138" fill="#3B3D47"></path><path d="M22.9897 54.0082L23.019 54.0166C23.6288 54.1513 24.2345 53.7682 24.3765 53.1579L26.6571 43.3918C26.6571 43.3918 26.678 43.3623 26.6988 43.3623H35.9799C36.6107 43.3623 37.1244 42.8487 37.1244 42.2089C37.1244 41.569 36.6107 41.0597 35.9799 41.0597H24.9111C24.861 41.0597 24.8192 41.0934 24.8067 41.1439L22.1209 52.6232C21.9748 53.2463 22.3632 53.8693 22.9856 54.0082" fill="#3B3D47"></path><path d="M28.0522 51.8824C27.4632 51.794 26.9035 52.1855 26.7657 52.7706V52.7916C26.6111 53.4357 27.0455 54.0503 27.693 54.1597C32.0495 54.8922 34.9858 58.2135 35.1112 62.1789C35.249 66.6452 31.8239 70.5558 27.6219 70.6947C23.42 70.8336 19.7693 67.1966 19.5856 62.7345C19.5688 62.1031 19.0426 61.6064 18.416 61.6316H18.3784C17.7644 61.6569 17.2841 62.1747 17.3008 62.7935V62.8229C17.3927 65.4918 18.533 68.1143 20.4502 70.0044C22.4175 72.0755 25.0197 73.132 27.7138 73.0394C30.4539 72.9468 32.9183 71.705 34.7436 69.495C36.5271 67.4702 37.4836 64.7551 37.3917 62.0863C37.2999 59.3711 36.2055 56.8412 34.2424 54.9974C32.6008 53.3473 30.4748 52.2486 28.048 51.8782" fill="#3B3D47"></path><path d="M60.8159 2.32787C61.1292 1.57015 60.5778 0.736667 59.7633 0.736667H47.5458C46.9151 0.736667 46.4055 1.25023 46.4055 1.88587C46.4055 2.5215 46.9151 3.03928 47.5458 3.03928H59.7633C60.2228 3.03928 60.6405 2.75724 60.8159 2.33208" fill="#3B3D47"></path><path d="M64.88 0.736667C64.3287 0.736667 63.8316 1.06922 63.6186 1.57857L51.1797 31.281C50.8957 31.9629 51.3928 32.7164 52.1279 32.7164H52.1446C52.696 32.7164 53.193 32.3839 53.406 31.8745L65.824 2.17211C66.108 1.49017 65.611 0.736667 64.8759 0.736667" fill="#3B3D47"></path><path d="M22.5888 103.028C22.5888 102.38 22.0666 101.854 21.4234 101.854H8.6671C8.02386 101.854 7.50174 102.38 7.50174 103.028C7.50174 103.676 8.02386 104.203 8.6671 104.203H21.4234C22.0666 104.203 22.5888 103.676 22.5888 103.028Z" fill="#3B3D47"></path><path d="M77.3565 96.7391C77.3565 96.0908 76.8344 95.5646 76.1911 95.5646H66.2542C65.611 95.5646 65.0889 96.0908 65.0889 96.7391C65.0889 97.3873 65.611 97.9135 66.2542 97.9135H76.1911C76.8344 97.9135 77.3565 97.3873 77.3565 96.7391Z" fill="#3B3D47"></path><path d="M80.1759 112.171C80.1759 111.523 79.6538 110.997 79.0105 110.997H62.0481C61.4048 110.997 60.8827 111.523 60.8827 112.171C60.8827 112.819 61.4048 113.346 62.0481 113.346H79.0105C79.6538 113.346 80.1759 112.819 80.1759 112.171Z" fill="#3B3D47"></path><path d="M80.1759 82.5488C80.1759 81.9005 79.6538 81.3743 79.0105 81.3743H66.2542C65.611 81.3743 65.0889 81.9005 65.0889 82.5488C65.0889 83.197 65.611 83.7232 66.2542 83.7232H79.0105C79.6538 83.7232 80.1759 83.197 80.1759 82.5488Z" fill="#3B3D47"></path><path d="M62.0481 98.1366C61.4048 98.1366 60.8827 98.6628 60.8827 99.3111V112.167C60.8827 112.815 61.4048 113.341 62.0481 113.341C62.6913 113.341 63.2134 112.815 63.2134 112.167V99.3111C63.2134 98.6628 62.6913 98.1366 62.0481 98.1366Z" fill="#3B3D47"></path><path d="M62.0481 81.3785C61.4048 81.3785 60.8827 81.9047 60.8827 82.553V94.5459C60.8827 95.1942 61.4048 95.7203 62.0481 95.7203C62.6913 95.7203 63.2134 95.1942 63.2134 94.5459V82.553C63.2134 81.9047 62.6913 81.3785 62.0481 81.3785Z" fill="#3B3D47"></path><path d="M62.0481 98.1366C61.4048 98.1366 60.8827 98.6628 60.8827 99.3111V112.167C60.8827 112.815 61.4048 113.341 62.0481 113.341C62.6913 113.341 63.2134 112.815 63.2134 112.167V99.3111C63.2134 98.6628 62.6913 98.1366 62.0481 98.1366Z" fill="#3B3D47"></path><path d="M62.0481 81.3785C61.4048 81.3785 60.8827 81.9047 60.8827 82.553V94.5459C60.8827 95.1942 61.4048 95.7203 62.0481 95.7203C62.6913 95.7203 63.2134 95.1942 63.2134 94.5459V82.553C63.2134 81.9047 62.6913 81.3785 62.0481 81.3785Z" fill="#3B3D47"></path><path d="M16.9457 81.3659C16.3944 81.3659 15.8973 81.6984 15.6843 82.2078L8.77152 99.0375C8.48749 99.7194 8.98455 100.473 9.71968 100.473H9.73639C10.2877 100.473 10.7848 100.14 10.9978 99.631L17.8939 82.8013C18.1779 82.1194 17.6809 81.3659 16.9457 81.3659Z" fill="#3B3D47"></path><path d="M8.36636 101.858C7.81501 101.858 7.31796 102.19 7.10493 102.7L3.24129 111.914C2.95726 112.596 3.45431 113.35 4.18945 113.35H4.20615C4.75751 113.35 5.25456 113.017 5.46758 112.508L9.31035 103.293C9.59438 102.611 8.92189 101.858 8.18676 101.858" fill="#3B3D47"></path><path d="M54.2164 81.3659C53.665 81.3659 53.168 81.6984 52.9549 82.2078L42.6881 106.754C42.404 107.435 42.9011 108.189 43.6362 108.189H43.6529C44.2043 108.189 44.7014 107.856 44.9144 107.347L55.1645 82.8013C55.4486 82.1194 54.9515 81.3659 54.2164 81.3659Z" fill="#3B3D47"></path><path d="M17.0209 81.3659C17.5723 81.3659 18.0693 81.6984 18.2824 82.2078L30.7212 111.91C31.0052 112.592 30.5082 113.346 29.7731 113.346H29.7563C29.205 113.346 28.7079 113.013 28.4949 112.504L16.0728 82.8013C15.7887 82.1194 16.2858 81.3659 17.0209 81.3659Z" fill="#3B3D47"></path><path d="M28.8249 81.3659C29.3762 81.3659 29.8733 81.6984 30.0863 82.2078L42.5252 111.91C42.8092 112.592 42.3122 113.346 41.577 113.346H41.5603C41.009 113.346 40.5119 113.013 40.2989 112.504L27.8767 82.8013C27.5927 82.1194 28.0898 81.3659 28.8249 81.3659Z" fill="#3B3D47"></path><path d="M45.7873 143.583L39.1878 132.469L37.5588 142.425L38.8746 143.456L38.8537 143.583H34.9691L35.0109 143.456L36.7026 142.425L38.4986 131.396C38.0809 130.765 37.6841 130.196 37.3709 129.754V129.649H39.4384L45.9544 140.804L47.5834 130.807L46.2468 129.754L46.2677 129.649H50.1313L50.1105 129.754L48.4397 130.807L46.3721 143.583H45.7873Z" fill="#3B3D47"></path><path d="M49.1539 140.425C49.1539 137.458 51.3468 134.743 53.665 134.743C55.2731 134.743 56.5262 136.195 56.5262 138.026C56.5262 141.436 54.1454 143.793 52.0778 143.793C50.3652 143.793 49.1539 142.341 49.1539 140.425ZM54.9181 137.9C54.9181 136.279 54.4169 135.353 53.6232 135.353C52.224 135.353 50.7829 138.026 50.7829 140.594C50.7829 142.299 51.2633 143.183 52.1613 143.183C53.4353 143.183 54.9181 140.952 54.9181 137.9Z" fill="#3B3D47"></path><path d="M66.3002 143.583L66.3211 143.456L68.0127 142.425L69.6417 132.469L63.5016 142.362H63.3763L60.5569 132.406L58.9279 142.425L60.2437 143.456L60.2228 143.583H56.4635L56.4844 143.456L58.1761 142.425L59.993 131.207C59.7633 130.533 59.4292 129.965 59.283 129.754V129.649H61.4341L64.2326 139.794L70.498 129.649H72.7953L72.7744 129.775C72.7744 129.775 71.7511 130.765 71.5631 130.954L69.6626 142.425L70.9783 143.456L70.9574 143.583H66.3002Z" fill="#3B3D47"></path><path d="M79.399 143.035L79.3781 143.183C78.856 143.33 77.2896 143.625 76.3916 143.751L77.039 140.615C76.0366 142.109 74.6164 143.793 73.3842 143.793C72.7786 143.793 72.1103 143.035 72.1103 141.73C72.1103 139.163 74.2196 135.542 78.1668 135.058L79.8585 134.09L78.1668 142.467L79.399 143.035ZM77.2688 139.499V139.478L78.0624 135.69C75.8277 135.858 73.6766 138.742 73.6766 141.709C73.6766 142.257 73.8228 142.657 74.0734 142.657C74.6791 142.657 76.2037 141.057 77.2688 139.499Z" fill="#3B3D47"></path><path d="M86.3118 134.781H86.7504L87.7528 129.919L86.4789 129.308V129.182C86.9592 129.013 88.5464 128.55 89.5489 128.319L86.6668 142.463L87.9199 143.073L87.899 143.179C87.3769 143.326 85.8314 143.621 84.9334 143.747L85.5808 140.59C84.286 142.526 83.0329 143.789 81.9887 143.789C81.2159 143.789 80.297 143.031 80.297 141.347C80.297 138.106 82.7196 134.781 86.3118 134.781ZM86.5624 135.77C86.458 135.643 86.1447 135.475 85.6644 135.475C83.6386 135.475 81.9051 138.295 81.9051 141.242C81.9051 142.168 82.1975 142.694 82.5108 142.694C83.1373 142.694 84.5784 141.2 85.8106 139.474L86.5624 135.77Z" fill="#3B3D47"></path></svg> 