<?xml version="1.0" encoding="UTF-8"?> <svg xmlns="http://www.w3.org/2000/svg" width="204" height="27" viewBox="0 0 204 27" fill="none"><path d="M29.3168 1.86579C29.5679 1.25848 29.126 0.590441 28.4731 0.590441H18.6808C18.1753 0.590441 17.7668 1.00206 17.7668 1.51153C17.7668 2.02099 18.1753 2.43599 18.6808 2.43599H28.4731C28.8414 2.43599 29.1762 2.20994 29.3168 1.86917" fill="#3B3D47"></path><path d="M32.5742 0.590441C32.1323 0.590441 31.7339 0.856983 31.5632 1.26523L21.5934 25.0718C21.3657 25.6184 21.7641 26.2223 22.35 26.2223H22.3634C22.8053 26.2223 23.2037 25.9558 23.3744 25.5475L33.3342 1.74096C33.5618 1.19438 33.1634 0.590441 32.5742 0.590441Z" fill="#3B3D47"></path><path d="M102.596 0.845972H86.8782C86.3726 0.845972 85.9608 1.25759 85.9608 1.76706C85.9608 2.27653 86.3693 2.69152 86.8782 2.69152H93.8249V11.4199C93.8249 11.9294 94.2333 12.3444 94.7388 12.3444C95.2443 12.3444 95.6561 11.9328 95.6561 11.4199V2.69152H102.599C103.105 2.69152 103.513 2.2799 103.513 1.76706C103.513 1.25422 103.105 0.845972 102.599 0.845972" fill="#3B3D47"></path><path d="M94.7355 14.2844C94.23 14.2844 93.8215 14.696 93.8215 15.2089V25.55C93.8215 26.0595 94.23 26.4745 94.7355 26.4745C95.241 26.4745 95.6528 26.0595 95.6528 25.55V15.2089C95.6528 14.6994 95.241 14.2844 94.7355 14.2844Z" fill="#3B3D47"></path><path d="M108.15 14.2844C107.635 14.2844 107.216 14.7061 107.216 15.2257V25.5298C107.216 26.0494 107.635 26.4711 108.15 26.4711C108.666 26.4711 109.084 26.0494 109.084 25.5298V15.2257C109.084 14.7061 108.666 14.2844 108.15 14.2844Z" fill="#3B3D47"></path><path d="M108.15 0.849344C107.635 0.849344 107.216 1.27109 107.216 1.79068V11.4031C107.216 11.9226 107.635 12.3444 108.15 12.3444C108.666 12.3444 109.084 11.9226 109.084 11.4031V1.79068C109.084 1.27109 108.666 0.849344 108.15 0.849344Z" fill="#3B3D47"></path><path d="M123.319 0.845972C122.814 0.845972 122.402 1.25759 122.402 1.76706V12.3714H110.952C110.437 12.3714 110.018 12.7931 110.018 13.3127C110.018 13.8323 110.437 14.254 110.952 14.254H122.402V25.55C122.402 26.0595 122.814 26.4711 123.319 26.4711C123.825 26.4711 124.233 26.0595 124.233 25.55V1.77043C124.233 1.26097 123.825 0.849344 123.319 0.849344" fill="#3B3D47"></path><path d="M11.4562 1.91978C10.2108 0.701781 8.5637 0 6.8061 0C5.0485 0 3.3679 0.701781 2.08569 1.91978C0.733171 3.17488 0 4.83149 0 6.60282C0 7.5239 0.220956 8.44499 0.622693 9.29523C0.987605 10.105 1.53665 10.8439 2.23299 11.4343C2.6046 11.7785 3.18042 11.7447 3.51185 11.3635L3.54868 11.3196C3.86672 10.9518 3.83325 10.3951 3.47838 10.0645L3.44155 10.0307C2.41712 9.1434 1.83125 7.89166 1.83125 6.59944C1.83125 4.01837 4.10107 1.8388 6.80945 1.8388C9.51783 1.8388 11.5667 3.94077 11.8613 6.67029L11.8747 6.7985C11.9216 7.25736 12.3066 7.60825 12.7686 7.60488H12.8188C13.341 7.60488 13.7528 7.14939 13.7059 6.62643L13.6926 6.48473C13.5084 4.7134 12.7049 3.09054 11.4596 1.91303" fill="#3B3D47"></path><path d="M12.7451 24.3801H2.7519C5.08867 21.2896 10.6092 13.8366 12.7786 10.8979C13.1502 10.3951 12.792 9.67986 12.1693 9.67986C11.9182 9.67986 11.6805 9.79794 11.5299 9.99701L0.599258 24.3059C0.562432 24.3532 0.542346 24.4139 0.542346 24.4746V25.9895C0.542346 26.1177 0.646128 26.2223 0.773345 26.2223H12.7451C13.2506 26.2223 13.6591 25.8107 13.6591 25.2979C13.6591 24.785 13.2506 24.3768 12.7451 24.3768" fill="#3B3D47"></path><path d="M70.5241 11.2276L70.5475 11.2344C71.0363 11.3423 71.5217 11.0353 71.6356 10.5461L73.4635 2.71851C73.4635 2.71851 73.4802 2.6949 73.4969 2.6949H80.9358C81.4413 2.6949 81.8531 2.28327 81.8531 1.77043C81.8531 1.25759 81.4413 0.849344 80.9358 0.849344H72.0641C72.0239 0.849344 71.9904 0.876336 71.9804 0.916823L69.8277 10.1176C69.7106 10.6169 70.0219 11.1163 70.5207 11.2276" fill="#3B3D47"></path><path d="M74.5816 9.52376C74.1096 9.45291 73.661 9.76669 73.5505 10.2357V10.2525C73.4266 10.7688 73.7748 11.2613 74.2937 11.3491C77.7855 11.9361 80.139 14.5982 80.2394 17.7764C80.3499 21.3562 77.6047 24.4906 74.2368 24.6019C70.8689 24.7133 67.9429 21.7982 67.7956 18.2218C67.7822 17.7157 67.3604 17.3176 66.8582 17.3378H66.8281C66.336 17.3581 65.951 17.7731 65.9644 18.269V18.2927C66.038 20.4317 66.952 22.5337 68.4886 24.0486C70.0654 25.7086 72.1511 26.5555 74.3105 26.4812C76.5066 26.407 78.4818 25.4117 79.9448 23.6404C81.3744 22.0175 82.141 19.8413 82.0673 17.7022C81.9937 15.526 81.1166 13.4983 79.5431 12.0205C78.2274 10.6979 76.5234 9.8173 74.5783 9.52039" fill="#3B3D47"></path><path d="M48.7442 1.86579C48.9952 1.25848 48.5533 0.590441 47.9005 0.590441H38.1081C37.6026 0.590441 37.1942 1.00206 37.1942 1.51153C37.1942 2.02099 37.6026 2.43599 38.1081 2.43599H47.9005C48.2688 2.43599 48.6035 2.20994 48.7442 1.86917" fill="#3B3D47"></path><path d="M52.0016 0.590441C51.5597 0.590441 51.1613 0.856983 50.9905 1.26523L41.0207 25.0718C40.7931 25.6184 41.1915 26.2223 41.7807 26.2223H41.7941C42.236 26.2223 42.6344 25.9558 42.8051 25.5475L52.7582 1.74096C52.9858 1.19438 52.5874 0.590441 51.9982 0.590441" fill="#3B3D47"></path><path d="M29.3168 1.86579C29.5679 1.25848 29.126 0.590441 28.4731 0.590441H18.6808C18.1753 0.590441 17.7668 1.00206 17.7668 1.51153C17.7668 2.02099 18.1753 2.43599 18.6808 2.43599H28.4731C28.8414 2.43599 29.1762 2.20994 29.3168 1.86917" fill="#3B3D47"></path><path d="M32.5742 0.590441C32.1323 0.590441 31.7339 0.856983 31.5632 1.26523L21.5934 25.0718C21.3657 25.6184 21.7641 26.2223 22.35 26.2223H22.3634C22.8053 26.2223 23.2037 25.9558 23.3744 25.5475L33.3342 1.74096C33.5618 1.19438 33.1634 0.590441 32.5742 0.590441Z" fill="#3B3D47"></path><path d="M102.596 0.845972H86.8782C86.3726 0.845972 85.9608 1.25759 85.9608 1.76706C85.9608 2.27653 86.3693 2.69152 86.8782 2.69152H93.8249V11.4199C93.8249 11.9294 94.2333 12.3444 94.7388 12.3444C95.2443 12.3444 95.6561 11.9328 95.6561 11.4199V2.69152H102.599C103.105 2.69152 103.513 2.2799 103.513 1.76706C103.513 1.25422 103.105 0.845972 102.599 0.845972" fill="#3B3D47"></path><path d="M94.7355 14.2844C94.23 14.2844 93.8215 14.696 93.8215 15.2089V25.55C93.8215 26.0595 94.23 26.4745 94.7355 26.4745C95.241 26.4745 95.6528 26.0595 95.6528 25.55V15.2089C95.6528 14.6994 95.241 14.2844 94.7355 14.2844Z" fill="#3B3D47"></path><path d="M108.15 14.2844C107.635 14.2844 107.216 14.7061 107.216 15.2257V25.5298C107.216 26.0494 107.635 26.4711 108.15 26.4711C108.666 26.4711 109.084 26.0494 109.084 25.5298V15.2257C109.084 14.7061 108.666 14.2844 108.15 14.2844Z" fill="#3B3D47"></path><path d="M108.15 0.849344C107.635 0.849344 107.216 1.27109 107.216 1.79068V11.4031C107.216 11.9226 107.635 12.3444 108.15 12.3444C108.666 12.3444 109.084 11.9226 109.084 11.4031V1.79068C109.084 1.27109 108.666 0.849344 108.15 0.849344Z" fill="#3B3D47"></path><path d="M123.319 0.845972C122.814 0.845972 122.402 1.25759 122.402 1.76706V12.3714H110.952C110.437 12.3714 110.018 12.7931 110.018 13.3127C110.018 13.8323 110.437 14.254 110.952 14.254H122.402V25.55C122.402 26.0595 122.814 26.4711 123.319 26.4711C123.825 26.4711 124.233 26.0595 124.233 25.55V1.77043C124.233 1.26097 123.825 0.849344 123.319 0.849344" fill="#3B3D47"></path><path d="M11.4562 1.91978C10.2108 0.701781 8.5637 0 6.8061 0C5.0485 0 3.3679 0.701781 2.08569 1.91978C0.733171 3.17488 0 4.83149 0 6.60282C0 7.5239 0.220956 8.44499 0.622693 9.29523C0.987605 10.105 1.53665 10.8439 2.23299 11.4343C2.6046 11.7785 3.18042 11.7447 3.51185 11.3635L3.54868 11.3196C3.86672 10.9518 3.83325 10.3951 3.47838 10.0645L3.44155 10.0307C2.41712 9.1434 1.83125 7.89166 1.83125 6.59944C1.83125 4.01837 4.10107 1.8388 6.80945 1.8388C9.51783 1.8388 11.5667 3.94077 11.8613 6.67029L11.8747 6.7985C11.9216 7.25736 12.3066 7.60825 12.7686 7.60488H12.8188C13.341 7.60488 13.7528 7.14939 13.7059 6.62643L13.6926 6.48473C13.5084 4.7134 12.7049 3.09054 11.4596 1.91303" fill="#3B3D47"></path><path d="M12.7451 24.3801H2.7519C5.08867 21.2896 10.6092 13.8366 12.7786 10.8979C13.1502 10.3951 12.792 9.67986 12.1693 9.67986C11.9182 9.67986 11.6805 9.79794 11.5299 9.99701L0.599258 24.3059C0.562432 24.3532 0.542346 24.4139 0.542346 24.4746V25.9895C0.542346 26.1177 0.646128 26.2223 0.773345 26.2223H12.7451C13.2506 26.2223 13.6591 25.8107 13.6591 25.2979C13.6591 24.785 13.2506 24.3768 12.7451 24.3768" fill="#3B3D47"></path><path d="M70.5241 11.2276L70.5475 11.2344C71.0363 11.3423 71.5217 11.0353 71.6356 10.5461L73.4635 2.71851C73.4635 2.71851 73.4802 2.6949 73.4969 2.6949H80.9358C81.4413 2.6949 81.8531 2.28327 81.8531 1.77043C81.8531 1.25759 81.4413 0.849344 80.9358 0.849344H72.0641C72.0239 0.849344 71.9904 0.876336 71.9804 0.916823L69.8277 10.1176C69.7106 10.6169 70.0219 11.1163 70.5207 11.2276" fill="#3B3D47"></path><path d="M74.5816 9.52376C74.1096 9.45291 73.661 9.76669 73.5505 10.2357V10.2525C73.4266 10.7688 73.7748 11.2613 74.2937 11.3491C77.7855 11.9361 80.139 14.5982 80.2394 17.7764C80.3499 21.3562 77.6047 24.4906 74.2368 24.6019C70.8689 24.7133 67.9429 21.7982 67.7956 18.2218C67.7822 17.7157 67.3604 17.3176 66.8582 17.3378H66.8281C66.336 17.3581 65.951 17.7731 65.9644 18.269V18.2927C66.038 20.4317 66.952 22.5337 68.4886 24.0486C70.0654 25.7086 72.1511 26.5555 74.3105 26.4812C76.5066 26.407 78.4818 25.4117 79.9448 23.6404C81.3744 22.0175 82.141 19.8413 82.0673 17.7022C81.9937 15.526 81.1166 13.4983 79.5431 12.0205C78.2274 10.6979 76.5234 9.8173 74.5783 9.52039" fill="#3B3D47"></path><path d="M48.7442 1.86579C48.9952 1.25848 48.5533 0.590441 47.9005 0.590441H38.1081C37.6026 0.590441 37.1942 1.00206 37.1942 1.51153C37.1942 2.02099 37.6026 2.43599 38.1081 2.43599H47.9005C48.2688 2.43599 48.6035 2.20994 48.7442 1.86917" fill="#3B3D47"></path><path d="M52.0016 0.590441C51.5597 0.590441 51.1613 0.856983 50.9905 1.26523L41.0207 25.0718C40.7931 25.6184 41.1915 26.2223 41.7807 26.2223H41.7941C42.236 26.2223 42.6344 25.9558 42.8051 25.5475L52.7582 1.74096C52.9858 1.19438 52.5874 0.590441 51.9982 0.590441" fill="#3B3D47"></path><path d="M157.567 18.4571C157.567 17.9375 157.148 17.5158 156.633 17.5158H146.408C145.893 17.5158 145.474 17.9375 145.474 18.4571C145.474 18.9767 145.893 19.3984 146.408 19.3984H156.633C157.148 19.3984 157.567 18.9767 157.567 18.4571Z" fill="#3B3D47"></path><path d="M201.463 13.4164C201.463 12.8968 201.045 12.4751 200.529 12.4751H192.565C192.049 12.4751 191.631 12.8968 191.631 13.4164C191.631 13.936 192.049 14.3577 192.565 14.3577H200.529C201.045 14.3577 201.463 13.936 201.463 13.4164Z" fill="#3B3D47"></path><path d="M203.723 25.7853C203.723 25.2657 203.304 24.844 202.789 24.844H189.193C188.678 24.844 188.259 25.2657 188.259 25.7853C188.259 26.3049 188.678 26.7266 189.193 26.7266H202.789C203.304 26.7266 203.723 26.3049 203.723 25.7853Z" fill="#3B3D47"></path><path d="M203.723 2.04283C203.723 1.52325 203.304 1.1015 202.789 1.1015H192.565C192.049 1.1015 191.631 1.52325 191.631 2.04283C191.631 2.56242 192.049 2.98416 192.565 2.98416H202.789C203.304 2.98416 203.723 2.56242 203.723 2.04283Z" fill="#3B3D47"></path><path d="M189.193 14.5366C188.678 14.5366 188.259 14.9583 188.259 15.4779V25.7819C188.259 26.3015 188.678 26.7233 189.193 26.7233C189.709 26.7233 190.127 26.3015 190.127 25.7819V15.4779C190.127 14.9583 189.709 14.5366 189.193 14.5366Z" fill="#3B3D47"></path><path d="M189.193 1.10487C188.678 1.10487 188.259 1.52662 188.259 2.04621V11.6586C188.259 12.1782 188.678 12.5999 189.193 12.5999C189.709 12.5999 190.127 12.1782 190.127 11.6586V2.04621C190.127 1.52662 189.709 1.10487 189.193 1.10487Z" fill="#3B3D47"></path><path d="M189.193 14.5366C188.678 14.5366 188.259 14.9583 188.259 15.4779V25.7819C188.259 26.3015 188.678 26.7233 189.193 26.7233C189.709 26.7233 190.127 26.3015 190.127 25.7819V15.4779C190.127 14.9583 189.709 14.5366 189.193 14.5366Z" fill="#3B3D47"></path><path d="M189.193 1.10487C188.678 1.10487 188.259 1.52662 188.259 2.04621V11.6586C188.259 12.1782 188.678 12.5999 189.193 12.5999C189.709 12.5999 190.127 12.1782 190.127 11.6586V2.04621C190.127 1.52662 189.709 1.10487 189.193 1.10487Z" fill="#3B3D47"></path><path d="M153.044 1.09475C152.602 1.09475 152.203 1.36129 152.033 1.76954L146.492 15.2586C146.264 15.8052 146.663 16.4091 147.252 16.4091H147.265C147.707 16.4091 148.106 16.1426 148.276 15.7343L153.804 2.24527C154.031 1.69869 153.633 1.09475 153.044 1.09475Z" fill="#3B3D47"></path><path d="M146.167 17.5191C145.725 17.5191 145.327 17.7857 145.156 18.1939L142.06 25.5795C141.832 26.1261 142.23 26.73 142.819 26.73H142.833C143.275 26.73 143.673 26.4635 143.844 26.0552L146.924 18.6696C147.152 18.1231 146.613 17.5191 146.023 17.5191" fill="#3B3D47"></path><path d="M182.916 1.09475C182.474 1.09475 182.076 1.36129 181.905 1.76954L173.676 21.443C173.449 21.9896 173.847 22.5935 174.436 22.5935H174.45C174.892 22.5935 175.29 22.327 175.461 21.9188L183.676 2.24527C183.904 1.69869 183.505 1.09475 182.916 1.09475Z" fill="#3B3D47"></path><path d="M153.104 1.09475C153.546 1.09475 153.944 1.36129 154.115 1.76954L164.085 25.5761C164.312 26.1227 163.914 26.7266 163.325 26.7266H163.311C162.87 26.7266 162.471 26.4601 162.3 26.0518L152.344 2.24527C152.116 1.69869 152.515 1.09475 153.104 1.09475Z" fill="#3B3D47"></path><path d="M162.565 1.09475C163.007 1.09475 163.405 1.36129 163.576 1.76954L173.546 25.5761C173.773 26.1227 173.375 26.7266 172.786 26.7266H172.772C172.33 26.7266 171.932 26.4601 171.761 26.0518L161.805 2.24527C161.577 1.69869 161.976 1.09475 162.565 1.09475Z" fill="#3B3D47"></path></svg> 