<?xml version="1.0" encoding="UTF-8"?> <svg xmlns="http://www.w3.org/2000/svg" width="206" height="19" viewBox="0 0 206 19" fill="none"><g clip-path="url(#clip0_126_608)"><path d="M18.355 8.47417H11.265C10.616 8.47417 10.0884 9.00911 10.0884 9.66721C10.0884 10.3253 10.616 10.8602 11.265 10.8602H12.7642V11.4491H11.265C10.2972 11.4491 9.50769 10.6486 9.50769 9.66721C9.50769 8.68584 10.2972 7.88535 11.265 7.88535H18.2639C17.4478 3.5712 13.7093 0.311523 9.21544 0.311523C4.12569 0.311523 0 4.49483 0 9.65566C0 10.0636 0.0303639 10.4638 0.0797052 10.8564H1.11967C3.00982 10.8795 6.61933 10.7833 6.65349 10.7833C7.45054 10.7756 8.09577 10.1213 8.10336 9.31699V9.29775V7.86226H8.68407V9.32854C8.67268 10.4446 7.76556 11.3644 6.66108 11.3721C6.63451 11.3721 3.74235 11.4491 1.77249 11.4491C1.53717 11.4491 1.31703 11.4491 1.11208 11.4491H0.170797C0.994417 15.7517 4.72918 19.0036 9.21544 19.0036C14.3052 19.0036 18.4309 14.8203 18.4309 9.65951C18.4309 9.25927 18.4043 8.86672 18.355 8.47802V8.47417Z" fill="#3B3D47"></path><path d="M22.9019 12.5268C23.4256 12.3421 24.0177 12.0688 24.3973 11.4415C24.792 10.768 24.7654 10.3101 24.7654 8.12413V3.00179C24.7654 1.50088 24.5681 1.21609 23.6951 1.15836V0.973633C24.2455 1.00057 24.7654 1.01597 25.3158 1.01597C25.9079 1.01597 26.2609 1.00057 26.8378 0.973633V1.15836C25.9914 1.23148 25.7674 1.50088 25.7674 3.00179V7.77776C25.7674 9.45186 25.7826 9.90983 25.8244 10.1369C25.7674 10.6795 25.627 11.1106 25.274 11.5377C24.625 12.3228 23.456 12.6384 22.974 12.6807L22.9019 12.523V12.5268Z" fill="#3B3D47"></path><path d="M29.4719 9.8096C29.2176 9.30929 29.0772 8.39335 29.0772 6.33441V3.00161C29.0772 1.5007 28.8798 1.21591 28.0068 1.15819V0.97346C28.5572 1.0004 29.0772 1.01579 29.6275 1.01579C30.2196 1.01579 30.5726 1.0004 31.1495 0.97346V1.15819C30.3031 1.23131 30.0792 1.5007 30.0792 3.00161V6.24589C30.0792 7.30423 30.0944 8.34717 30.2348 8.94753C30.4587 9.9212 30.9977 10.3753 31.8137 10.3753C32.5045 10.3753 33.0548 10.0905 33.3774 9.44399C33.7001 8.80129 33.7722 7.72756 33.7722 6.31132V3.27871C33.7722 1.56228 33.6735 1.21976 32.7132 1.14664V0.961914C32.9941 0.977308 33.4761 1.00425 33.9544 1.00425C34.406 1.00425 34.8994 0.977308 35.1689 0.961914V1.14664C34.3491 1.23131 34.2087 1.47376 34.2087 3.27871V6.28053C34.2087 7.92383 34.1252 8.92444 33.757 9.68259C33.3205 10.5562 32.5994 11.0565 31.6543 11.0565C30.4701 11.0565 29.8628 10.6255 29.4681 9.79805L29.4719 9.8096Z" fill="#3B3D47"></path><path d="M36.2963 10.7373C37.1161 10.6795 37.3666 10.4525 37.3666 8.89383V3.00179C37.3666 1.50088 37.1692 1.21609 36.2963 1.15836V0.973633C36.8466 1.00057 37.3666 1.01597 37.9169 1.01597C38.509 1.01597 38.862 1.00057 39.4389 0.973633V1.15836C38.5925 1.23148 38.3686 1.50088 38.3686 3.00179V8.73604C38.3686 10.337 38.5508 10.5217 39.6932 10.5217C40.8357 10.5217 41.4695 9.77898 41.6973 8.13183H41.8794L41.8073 9.7328C41.7656 10.491 41.6669 10.7488 41.4961 10.9181C40.5244 10.8912 40.1563 10.8912 39.0442 10.8912C37.6778 10.8912 37.0819 10.8912 36.2925 10.9181V10.7334L36.2963 10.7373Z" fill="#3B3D47"></path><path d="M42.995 10.7373C43.8148 10.6795 44.0653 10.4525 44.0653 8.89383V3.00179C44.0653 1.50088 43.868 1.21609 42.995 1.15836V0.973633C43.5454 1.00057 44.0653 1.01597 44.6157 1.01597C45.2078 1.01597 45.5608 1.00057 46.1377 0.973633V1.15836C45.2913 1.23148 45.0673 1.50088 45.0673 3.00179V8.90922C45.0673 10.541 45.39 10.6949 46.1377 10.7411V10.9258C45.6443 10.8989 45.1205 10.8835 44.5284 10.8835C43.9363 10.8835 43.5416 10.8989 42.9912 10.9258V10.7411L42.995 10.7373Z" fill="#3B3D47"></path><path d="M47.269 10.7372C47.975 10.6525 48.2141 10.1368 48.5253 9.16315C49.3869 6.51924 51.1215 0.911988 51.1215 0.911988L51.3909 0.838867C52.0248 3.49817 52.7156 6.21521 53.3798 8.77446C53.7328 10.1176 53.9453 10.6063 54.7196 10.7333V10.9181C54.397 10.9027 53.8163 10.8757 53.2242 10.8757C52.5182 10.8757 52.2525 10.9027 51.7857 10.9181V10.7333C52.6472 10.6487 52.6738 10.2908 52.4347 9.27476C52.2373 8.44349 52.0551 7.65839 51.8844 6.98491H49.6716C49.6716 6.98491 49.3338 8.1587 49.1478 8.81679C48.7265 10.2908 48.8366 10.691 49.7968 10.7333V10.9181C49.5425 10.9027 49.1478 10.8757 48.4988 10.8757C48.0471 10.8757 47.512 10.9027 47.2728 10.9181V10.7333L47.269 10.7372ZM51.8084 6.64624C51.5124 5.38778 51.1898 4.0716 50.8786 2.84393L49.7779 6.64624H51.8084Z" fill="#3B3D47"></path><path d="M57.4751 12.5268C57.9989 12.3421 58.591 12.0688 58.9705 11.4415C59.3653 10.768 59.3387 10.3101 59.3387 8.12413V3.00179C59.3387 1.50088 59.1413 1.21609 58.2684 1.15836V0.973633C58.8187 1.00057 59.3387 1.01597 59.889 1.01597C60.4811 1.01597 60.8341 1.00057 61.411 0.973633V1.15836C60.5646 1.23148 60.3407 1.50088 60.3407 3.00179V7.77776C60.3407 9.45186 60.3559 9.90983 60.3976 10.1369C60.3407 10.6795 60.2003 11.1106 59.8473 11.5377C59.1982 12.3228 58.0292 12.6384 57.5472 12.6807L57.4751 12.523V12.5268Z" fill="#3B3D47"></path><path d="M62.7924 10.7373C63.6122 10.6795 63.8627 10.4525 63.8627 8.89383V3.00179C63.8627 1.50088 63.6653 1.21609 62.7924 1.15836V0.973633C63.3427 1.00057 63.8627 1.01597 64.413 1.01597C65.0051 1.01597 65.3581 1.00057 65.935 0.973633V1.15836C65.0886 1.23148 64.8647 1.50088 64.8647 3.00179V8.90922C64.8647 10.541 65.1873 10.6949 65.935 10.7411V10.9258C65.4416 10.8989 64.9178 10.8835 64.3257 10.8835C63.7337 10.8835 63.3389 10.8989 62.7886 10.9258V10.7411L62.7924 10.7373Z" fill="#3B3D47"></path><path d="M67.0659 10.7372C67.7719 10.6525 68.011 10.1368 68.3222 9.16315C69.1838 6.51924 70.9183 0.911988 70.9183 0.911988L71.1878 0.838867C71.8217 3.49817 72.5124 6.21521 73.1767 8.77446C73.5296 10.1176 73.7422 10.6063 74.5165 10.7333V10.9181C74.1938 10.9027 73.6131 10.8757 73.021 10.8757C72.3151 10.8757 72.0494 10.9027 71.5825 10.9181V10.7333C72.4441 10.6487 72.4707 10.2908 72.2316 9.27476C72.0342 8.44349 71.852 7.65839 71.6812 6.98491H69.4685C69.4685 6.98491 69.1307 8.1587 68.9447 8.81679C68.5234 10.2908 68.6335 10.691 69.5937 10.7333V10.9181C69.3394 10.9027 68.9447 10.8757 68.2957 10.8757C67.844 10.8757 67.3088 10.9027 67.0697 10.9181V10.7333L67.0659 10.7372ZM71.6053 6.64624C71.3093 5.38778 70.9867 4.0716 70.6754 2.84393L69.5747 6.64624H71.6053Z" fill="#3B3D47"></path><path d="M81.5762 10.9836C80.096 8.16646 78.574 5.32243 77.0482 2.54767C77.0482 4.94912 77.0482 6.56549 77.0748 8.86689C77.1165 10.3524 77.2304 10.6834 78.0882 10.7411V10.9258C77.6099 10.8989 77.2569 10.8835 76.904 10.8835C76.384 10.8835 76.0879 10.8989 75.6211 10.9258V10.7411C76.3536 10.641 76.5662 10.2985 76.5927 8.89768C76.6345 6.78101 76.6497 5.58028 76.6497 3.19036C76.6497 1.80491 76.4106 1.27382 75.6363 1.17375V0.973633C75.9171 0.989027 76.1866 1.00057 76.5548 1.00057C76.8508 1.00057 77.0899 1.00057 77.386 0.973633C78.6992 3.50594 80.0087 5.87661 81.3637 8.30886C81.3788 5.97667 81.3788 4.20637 81.3637 2.83245C81.3485 1.54706 81.2498 1.20069 80.3199 1.15836V0.973633C80.6311 0.989027 80.9386 1.01597 81.5193 1.01597C82.0544 1.01597 82.5061 0.989027 82.787 0.973633V1.15836C81.9671 1.20069 81.8685 1.574 81.8267 2.70161C81.785 3.93312 81.7546 7.3044 81.7546 8.37813C81.7546 10.237 81.7698 10.7526 81.785 11.0374L81.5724 10.9797L81.5762 10.9836Z" fill="#3B3D47"></path><path d="M84.2256 6.01934C84.2256 2.54415 85.592 0.800781 87.3417 0.800781C88.3703 0.800781 88.9206 1.1279 89.1901 1.35881C89.3874 1.75906 89.3874 2.44409 89.3723 2.97518L89.3457 3.91806H89.1066C88.951 2.35942 88.4424 1.11636 87.2999 1.11636C85.888 1.11636 85.368 3.01751 85.368 5.87694C85.368 8.73637 85.8463 10.7684 87.4138 10.7684C87.949 10.7684 88.2754 10.5952 88.5145 10.3527V8.05134C88.5145 7.07767 88.4575 6.75055 87.5846 6.65049V6.46576C87.9641 6.4927 88.3475 6.50809 88.9092 6.50809C89.3457 6.50809 89.6417 6.4927 89.9947 6.46576V6.62355C89.5582 6.70821 89.4596 7.15464 89.4596 8.06673V10.4413C89.0079 10.7568 88.1463 11.0993 87.372 11.0993C85.3566 11.0993 84.2256 9.32519 84.2256 6.02318V6.01934Z" fill="#3B3D47"></path><path d="M94.6934 0H95.1336V11.8957H94.6934V0Z" fill="#3B3D47"></path><path d="M100.201 5.95006C100.201 2.59033 101.525 0.800781 103.218 0.800781C103.795 0.800781 104.433 0.885448 105.01 1.35881C105.207 1.75906 105.207 2.44409 105.192 2.97518L105.165 3.91806H104.941C104.816 2.45948 104.307 1.11636 103.207 1.11636C101.795 1.11636 101.343 3.07524 101.343 5.85C101.343 8.7941 101.738 10.7684 103.233 10.7684C104.304 10.7684 104.854 9.71004 105.066 8.20913H105.29L105.249 9.02501C105.207 9.78316 105.135 10.2989 104.994 10.5836C104.543 10.8992 103.935 11.0993 103.203 11.0993C101.411 11.0993 100.201 9.29825 100.201 5.95006Z" fill="#3B3D47"></path><path d="M106.536 10.7373C107.355 10.6795 107.606 10.4525 107.606 8.89383V3.00179C107.606 1.50088 107.408 1.21609 106.536 1.15836V0.973633C107.086 1.00057 107.606 1.01597 108.156 1.01597C108.748 1.01597 109.101 1.00057 109.678 0.973633V1.15836C108.832 1.23148 108.608 1.50088 108.608 3.00179V5.57643H111.864V2.89018C111.864 1.50472 111.538 1.20454 110.794 1.15836V0.973633C111.36 1.00057 111.853 1.01597 112.415 1.01597C112.976 1.01597 113.375 1.00057 113.937 0.973633V1.15836C113.132 1.20069 112.866 1.50088 112.866 2.89018V8.88228C112.866 10.541 113.147 10.6988 113.937 10.7411V10.9258C113.371 10.8989 113.018 10.8835 112.456 10.8835C111.849 10.8835 111.356 10.8989 110.764 10.9258V10.7411C111.527 10.668 111.864 10.541 111.864 8.88228V5.92279H108.608V8.91307C108.608 10.5448 108.93 10.6988 109.678 10.745V10.9297C109.185 10.9027 108.665 10.8873 108.069 10.8873C107.473 10.8873 107.082 10.9027 106.532 10.9297V10.745L106.536 10.7373Z" fill="#3B3D47"></path><path d="M114.996 10.7372C115.702 10.6525 115.941 10.1368 116.252 9.16315C117.113 6.51924 118.848 0.911988 118.848 0.911988L119.117 0.838867C119.751 3.49817 120.442 6.21521 121.106 8.77446C121.459 10.1176 121.672 10.6063 122.446 10.7333V10.9181C122.124 10.9027 121.543 10.8757 120.951 10.8757C120.245 10.8757 119.979 10.9027 119.512 10.9181V10.7333C120.374 10.6487 120.4 10.2908 120.161 9.27476C119.964 8.44349 119.782 7.65839 119.611 6.98491H117.398C117.398 6.98491 117.06 8.1587 116.874 8.81679C116.453 10.2908 116.563 10.691 117.523 10.7333V10.9181C117.269 10.9027 116.874 10.8757 116.225 10.8757C115.774 10.8757 115.239 10.9027 114.999 10.9181V10.7333L114.996 10.7372ZM119.535 6.64624C119.239 5.38778 118.916 4.0716 118.605 2.84393L117.504 6.64624H119.535Z" fill="#3B3D47"></path><path d="M128.208 10.0792C127.938 9.70586 127.589 9.03622 127.278 8.29346C126.955 7.51992 126.784 7.0504 126.545 6.34997C126.223 6.34997 125.87 6.33458 125.574 6.27685V8.90922C125.574 10.541 125.896 10.6949 126.644 10.7411V10.9258C126.151 10.8989 125.631 10.8835 125.035 10.8835C124.439 10.8835 124.048 10.8989 123.498 10.9258V10.7411C124.317 10.6834 124.568 10.4563 124.568 8.89768V3.00179C124.568 1.50088 124.371 1.21609 123.498 1.15836V0.973633H126.135C127.714 0.973633 128.955 1.65866 128.929 3.63294C128.914 4.66434 128.363 5.57643 127.407 5.97667C127.676 6.71943 127.984 7.50837 128.477 8.47819C129.365 10.237 129.957 10.6795 130.72 10.7373V10.922C130.565 10.9489 130.197 10.9797 129.946 10.9797C129.115 10.9797 128.621 10.6218 128.212 10.0792H128.208ZM127.828 3.70221C127.828 2.08585 127.251 1.21224 125.585 1.22763C125.57 1.84339 125.57 2.22824 125.57 2.85939V6.09213C126.951 6.11907 127.824 5.47637 127.824 3.70606L127.828 3.70221Z" fill="#3B3D47"></path><path d="M131.282 10.7373C132.102 10.6795 132.352 10.4525 132.352 8.89383V3.00179C132.352 1.50088 132.155 1.21609 131.282 1.15836V0.973633C131.832 1.00057 132.352 1.01597 132.903 1.01597C133.495 1.01597 133.848 1.00057 134.425 0.973633V1.15836C133.578 1.23148 133.354 1.50088 133.354 3.00179V8.73604C133.354 10.337 133.537 10.5217 134.679 10.5217C135.822 10.5217 136.455 9.77898 136.683 8.13183H136.865L136.793 9.7328C136.751 10.491 136.653 10.7488 136.482 10.9181C135.51 10.8912 135.142 10.8912 134.03 10.8912C132.664 10.8912 132.068 10.8912 131.278 10.9181V10.7334L131.282 10.7373Z" fill="#3B3D47"></path><path d="M137.909 10.7373C138.729 10.6795 138.979 10.4525 138.979 8.89383V3.00179C138.979 1.50088 138.782 1.21609 137.909 1.15836V0.973633C138.475 0.989027 139.856 1.00057 140.744 1.00057C141.576 1.00057 142.437 0.985178 142.972 0.973633C143.128 1.25842 143.143 1.75872 143.128 2.28982L143.086 3.43282H142.93C142.65 1.5586 142.24 1.30075 139.997 1.31615C139.981 1.50088 139.981 2.18976 139.981 2.67467V5.63416C142.027 5.63416 142.38 5.50716 142.532 4.39109H142.688V7.40831H142.532C142.418 6.04979 142.008 5.93434 139.981 5.93434V8.79377C139.981 10.3793 140.293 10.5256 141.363 10.5256C142.676 10.5256 143.181 9.80977 143.394 8.13567H143.576L143.504 9.73665C143.477 10.4101 143.39 10.7103 143.192 10.922C142.361 10.895 141.811 10.895 140.964 10.895C139.951 10.895 138.919 10.895 137.905 10.922V10.7373H137.909Z" fill="#3B3D47"></path><path d="M145.409 10.5836C145.226 10.3104 145.17 9.82549 145.196 9.22513L145.253 7.72422H145.466C145.579 9.78316 146.229 10.7684 147.341 10.7684C148.259 10.7684 148.976 10.0679 148.976 8.59398C148.976 7.55103 148.369 6.76209 147.341 6.40418C146.312 6.04627 145.31 5.30352 145.31 3.54476C145.31 1.88606 146.255 0.800781 147.694 0.800781C148.301 0.800781 148.878 0.916236 149.257 1.17408C149.481 1.54739 149.439 2.21703 149.439 2.45948L149.413 3.74488H149.2C149.117 2.25936 148.677 1.10096 147.58 1.10096C146.676 1.10096 146.115 2.07463 146.115 3.18685C146.115 4.29906 146.733 4.98794 147.652 5.33046C149.033 5.83076 149.755 6.61585 149.755 8.10522C149.755 9.9371 148.752 11.0955 147.231 11.0955C146.513 11.0955 145.652 10.8376 145.412 10.5798L145.409 10.5836Z" fill="#3B3D47"></path><path d="M153.645 10.7373C154.465 10.6795 154.715 10.4525 154.715 8.89383V3.00179C154.715 1.50088 154.518 1.21609 153.645 1.15836V0.973633C154.195 1.00057 154.715 1.01597 155.266 1.01597C155.858 1.01597 156.211 1.00057 156.788 0.973633V1.15836C155.941 1.23148 155.717 1.50088 155.717 3.00179V5.57643H158.974V2.89018C158.974 1.50472 158.647 1.20454 157.903 1.15836V0.973633C158.469 1.00057 158.962 1.01597 159.524 1.01597C160.086 1.01597 160.484 1.00057 161.046 0.973633V1.15836C160.241 1.20069 159.976 1.50088 159.976 2.89018V8.88228C159.976 10.541 160.257 10.6988 161.046 10.7411V10.9258C160.481 10.8989 160.128 10.8835 159.566 10.8835C158.959 10.8835 158.465 10.8989 157.873 10.9258V10.7411C158.636 10.668 158.974 10.541 158.974 8.88228V5.92279H155.717V8.91307C155.717 10.5448 156.04 10.6988 156.788 10.745V10.9297C156.294 10.9027 155.774 10.8873 155.178 10.8873C154.582 10.8873 154.191 10.9027 153.641 10.9297V10.745L153.645 10.7373Z" fill="#3B3D47"></path><path d="M162.105 10.7372C162.811 10.6525 163.05 10.1368 163.361 9.16315C164.223 6.51924 165.957 0.911988 165.957 0.911988L166.227 0.838867C166.861 3.49817 167.552 6.21521 168.216 8.77446C168.569 10.1176 168.781 10.6063 169.556 10.7333V10.9181C169.233 10.9027 168.652 10.8757 168.06 10.8757C167.354 10.8757 167.088 10.9027 166.622 10.9181V10.7333C167.483 10.6487 167.51 10.2908 167.271 9.27476C167.073 8.44349 166.891 7.65839 166.72 6.98491H164.508C164.508 6.98491 164.17 8.1587 163.984 8.81679C163.562 10.2908 163.673 10.691 164.633 10.7333V10.9181C164.378 10.9027 163.984 10.8757 163.335 10.8757C162.883 10.8757 162.348 10.9027 162.109 10.9181V10.7333L162.105 10.7372ZM166.644 6.64624C166.348 5.38778 166.026 4.0716 165.714 2.84393L164.614 6.64624H166.644Z" fill="#3B3D47"></path><path d="M170.269 3.14412C169.947 1.82794 169.802 1.25836 169.085 1.15445V0.969727C169.381 0.985121 169.905 1.01206 170.44 1.01206C170.975 1.01206 171.541 0.985121 171.837 0.969727V1.15445C171.119 1.23912 170.99 1.71249 171.172 2.58609C171.696 4.98755 172.201 7.16195 172.569 8.67825C173.036 6.97722 173.556 5.08761 173.993 3.42891C173.64 1.89721 173.473 1.2853 172.778 1.15445V0.969727C173.256 0.996666 173.651 1.01206 174.076 1.01206C174.528 1.01206 174.922 0.996666 175.442 0.969727V1.15445C174.725 1.23912 174.581 1.61242 174.793 2.58609C175.329 5.04528 175.807 7.14655 176.19 8.60513C176.501 7.31974 176.907 5.60331 177.446 3.04406C177.742 1.62782 177.56 1.24297 176.756 1.1583V0.973575C176.938 0.988969 177.519 1.01591 177.97 1.01591C178.38 1.01591 178.744 1.00051 179.071 0.973575V1.1583C178.547 1.25836 178.338 1.57394 178.057 2.71694C177.439 5.13379 176.437 8.97844 176 10.9527L175.746 11.0258C175.408 9.4518 174.858 6.95028 174.182 4.16397C173.731 5.79573 172.801 9.14007 172.391 10.9566L172.121 11.0297C171.711 9.15547 170.74 5.03758 170.273 3.15182L170.269 3.14412Z" fill="#3B3D47"></path><path d="M185.273 10.1946C184.92 9.79437 184.499 9.15168 183.99 8.15107C183.512 7.21973 183.128 6.39231 182.775 5.63416L182.126 6.46543V8.90922C182.126 10.541 182.449 10.6949 183.197 10.7411V10.9258C182.703 10.8989 182.183 10.8835 181.587 10.8835C180.992 10.8835 180.601 10.8989 180.05 10.9258V10.7411C180.87 10.6834 181.121 10.4563 181.121 8.89768V3.00179C181.121 1.50088 180.923 1.21609 180.05 1.15836V0.973633C180.601 1.00057 181.121 1.01597 181.671 1.01597C182.263 1.01597 182.616 1.00057 183.193 0.973633V1.15836C182.347 1.23148 182.123 1.50088 182.123 3.00179V6.0344C182.688 5.27625 184.013 3.44821 184.901 2.0743C185.311 1.447 184.984 1.24688 184.434 1.15836V0.973633C184.73 0.989027 185.28 1.00057 185.717 1.00057C186.112 1.00057 186.59 0.985178 186.844 0.973633V1.15836C186.21 1.20069 185.816 1.63172 185.334 2.24363C184.658 3.11724 183.474 4.76055 183.474 4.76055C183.91 5.73422 184.502 6.93495 185.068 7.96249C186.381 10.3486 186.859 10.6795 187.717 10.7373V10.922C187.535 10.9643 187.349 10.9797 187.125 10.9797C186.066 10.9797 185.63 10.6064 185.265 10.1946H185.273Z" fill="#3B3D47"></path><path d="M188.347 10.7373C189.167 10.6795 189.417 10.4525 189.417 8.89383V3.00179C189.417 1.50088 189.22 1.21609 188.347 1.15836V0.973633C188.897 1.00057 189.417 1.01597 189.968 1.01597C190.56 1.01597 190.913 1.00057 191.49 0.973633V1.15836C190.643 1.23148 190.419 1.50088 190.419 3.00179V8.90922C190.419 10.541 190.742 10.6949 191.49 10.7411V10.9258C190.996 10.8989 190.473 10.8835 189.88 10.8835C189.288 10.8835 188.894 10.8989 188.343 10.9258V10.7411L188.347 10.7373Z" fill="#3B3D47"></path><path d="M198.811 10.9836C197.331 8.16646 195.809 5.32243 194.283 2.54767C194.283 4.94912 194.283 6.56549 194.31 8.86689C194.351 10.3524 194.465 10.6834 195.323 10.7411V10.9258C194.845 10.8989 194.492 10.8835 194.139 10.8835C193.619 10.8835 193.323 10.8989 192.856 10.9258V10.7411C193.588 10.641 193.801 10.2985 193.828 8.89768C193.869 6.78101 193.885 5.58028 193.885 3.19036C193.885 1.80491 193.645 1.27382 192.871 1.17375V0.973633C193.152 0.989027 193.421 1.00057 193.79 1.00057C194.086 1.00057 194.325 1.00057 194.621 0.973633C195.934 3.50594 197.244 5.87661 198.599 8.30886C198.614 5.97667 198.614 4.20637 198.599 2.83245C198.583 1.54706 198.485 1.20069 197.555 1.15836V0.973633C197.866 0.989027 198.173 1.01597 198.754 1.01597C199.289 1.01597 199.741 0.989027 200.022 0.973633V1.15836C199.202 1.20069 199.103 1.574 199.062 2.70161C199.02 3.93312 198.989 7.3044 198.989 8.37813C198.989 10.237 199.005 10.7526 199.02 11.0374L198.807 10.9797L198.811 10.9836Z" fill="#3B3D47"></path><path d="M201.658 10.5836C201.476 10.3104 201.419 9.82549 201.445 9.22513L201.502 7.72422H201.715C201.828 9.78316 202.478 10.7684 203.59 10.7684C204.508 10.7684 205.225 10.0679 205.225 8.59398C205.225 7.55103 204.618 6.76209 203.59 6.40418C202.561 6.04627 201.559 5.30352 201.559 3.54476C201.559 1.88606 202.504 0.800781 203.943 0.800781C204.55 0.800781 205.127 0.916236 205.506 1.17408C205.73 1.54739 205.688 2.21703 205.688 2.45948L205.662 3.74488H205.449C205.366 2.25936 204.926 1.10096 203.829 1.10096C202.925 1.10096 202.364 2.07463 202.364 3.18685C202.364 4.29906 202.982 4.98794 203.901 5.33046C205.282 5.83076 206.004 6.61585 206.004 8.10522C206.004 9.9371 205.002 11.0955 203.48 11.0955C202.762 11.0955 201.901 10.8376 201.661 10.5798L201.658 10.5836Z" fill="#3B3D47"></path><path d="M23.3574 18.2219C23.5927 18.2027 23.7028 18.1565 23.7028 17.6639V15.9552C23.7028 15.6858 23.699 15.2432 23.699 15.2432C23.1525 15.2432 23.0576 15.3741 22.9627 15.9744L22.9058 15.9667V15.4241C22.9058 15.2817 22.9247 15.1893 22.9627 15.1162C23.012 15.1508 23.1373 15.1508 23.2132 15.1508H24.515C24.591 15.1508 24.7048 15.1508 24.7656 15.1162C24.8073 15.1893 24.8225 15.2855 24.8225 15.4241V15.9667L24.7656 15.9744C24.6669 15.3702 24.5758 15.2471 24.0292 15.2432C24.0292 15.2432 24.0254 15.6858 24.0254 15.9552V17.6678C24.0254 18.1835 24.1545 18.2065 24.367 18.2219V18.2797C24.2266 18.272 24.0254 18.2643 23.8622 18.2643C23.699 18.2643 23.5282 18.2681 23.365 18.2797V18.2219H23.3574Z" fill="#3B3D47"></path><path d="M25.7943 18.2221C26.0524 18.2028 26.1359 18.1297 26.1359 17.6371V15.7706C26.1359 15.2934 26.0714 15.2048 25.7943 15.1856V15.1279C25.9689 15.1356 26.1359 15.1433 26.3067 15.1433C26.4965 15.1433 26.6066 15.1394 26.7887 15.1279V15.1856C26.5193 15.2087 26.4471 15.2934 26.4471 15.7706V16.5864H27.4795V15.7321C27.4795 15.2934 27.377 15.1971 27.1379 15.1818V15.124C27.3163 15.1317 27.4719 15.1394 27.6503 15.1394C27.8287 15.1394 27.954 15.1356 28.1323 15.124V15.1818C27.878 15.1971 27.7908 15.2895 27.7908 15.7321V17.6332C27.7908 18.1605 27.8818 18.2105 28.1323 18.2221V18.2798C27.954 18.2721 27.8401 18.2644 27.6617 18.2644C27.4681 18.2644 27.3125 18.2682 27.1265 18.2798V18.2221C27.3695 18.199 27.4757 18.1566 27.4757 17.6332V16.6942H26.4434V17.6409C26.4434 18.1566 26.5458 18.2067 26.7849 18.2221V18.2798C26.6293 18.2721 26.4623 18.2644 26.2764 18.2644C26.0904 18.2644 25.9613 18.2682 25.7905 18.2798V18.2221H25.7943Z" fill="#3B3D47"></path><path d="M29.1265 18.2221C29.3846 18.2029 29.4681 18.1298 29.4681 17.6371V15.7706C29.4681 15.2934 29.4035 15.2049 29.1265 15.1857V15.1279C29.3049 15.1318 29.7451 15.1356 30.026 15.1356C30.2879 15.1356 30.5612 15.1318 30.732 15.1279C30.7813 15.2203 30.7851 15.3781 30.7813 15.5436L30.7661 15.9053H30.7168C30.6257 15.3127 30.4966 15.228 29.7869 15.2357C29.7831 15.2934 29.7831 15.5128 29.7831 15.6667V16.6058C30.4321 16.6058 30.5422 16.5634 30.5915 16.2094H30.6409V17.1676H30.5915C30.5574 16.7366 30.4245 16.702 29.7831 16.702V17.6102C29.7831 18.1144 29.8818 18.1605 30.2234 18.1605C30.6409 18.1605 30.8003 17.9335 30.8686 17.4024H30.9255L30.9028 17.9104C30.8952 18.1221 30.8686 18.2183 30.8041 18.2875C30.5384 18.2798 30.3638 18.2798 30.0981 18.2798C29.7755 18.2798 29.4491 18.2798 29.1265 18.2875V18.2298V18.2221Z" fill="#3B3D47"></path><path d="M32.9409 18.7878C33.1079 18.7301 33.2939 18.6415 33.4154 18.4414C33.5406 18.2298 33.533 18.0835 33.533 17.3908V15.7667C33.533 15.2895 33.4685 15.201 33.1914 15.1818V15.124C33.366 15.1317 33.533 15.1394 33.7076 15.1394C33.8974 15.1394 34.0074 15.1356 34.1896 15.124V15.1818C33.9202 15.2048 33.848 15.2895 33.848 15.7667V17.283C33.848 17.8141 33.8518 17.9604 33.867 18.0296C33.848 18.2028 33.8025 18.3375 33.6924 18.4722C33.4875 18.7224 33.1155 18.8224 32.9637 18.834L32.9409 18.7839V18.7878Z" fill="#3B3D47"></path><path d="M35.6246 17.9257C35.5449 17.7679 35.4993 17.4754 35.4993 16.825V15.7667C35.4993 15.2895 35.4348 15.2009 35.1577 15.1817V15.124C35.3323 15.1317 35.4993 15.1394 35.6739 15.1394C35.8599 15.1394 35.9737 15.1355 36.1559 15.124V15.1817C35.8865 15.2048 35.8143 15.2895 35.8143 15.7667V16.7942C35.8143 17.129 35.8181 17.46 35.8637 17.6524C35.9358 17.9603 36.1066 18.1065 36.3647 18.1065C36.5848 18.1065 36.7594 18.0142 36.8619 17.8102C36.9644 17.6062 36.9871 17.2676 36.9871 16.8173V15.8552C36.9871 15.3125 36.9568 15.2009 36.6531 15.1778V15.1201C36.7442 15.124 36.896 15.1355 37.0479 15.1355C37.1921 15.1355 37.3477 15.1278 37.4312 15.1201V15.1778C37.1731 15.2048 37.1276 15.2818 37.1276 15.8552V16.8058C37.1276 17.3253 37.101 17.6447 36.9833 17.8833C36.8429 18.1604 36.6152 18.3182 36.3153 18.3182C35.9396 18.3182 35.746 18.1835 35.6208 17.918L35.6246 17.9257Z" fill="#3B3D47"></path><path d="M38.3987 18.2221C38.6568 18.2029 38.7403 18.1298 38.7403 17.6371V15.7706C38.7403 15.2934 38.6758 15.2049 38.3987 15.1857V15.1279C38.5733 15.1356 38.7403 15.1433 38.9111 15.1433C39.1009 15.1433 39.2109 15.1395 39.3931 15.1279V15.1857C39.1236 15.2087 39.0515 15.2934 39.0515 15.7706V17.591C39.0515 18.099 39.1085 18.1567 39.4728 18.1567C39.8372 18.1567 40.0346 17.9219 40.1067 17.3985H40.1636L40.1408 17.9065C40.1257 18.1451 40.0953 18.2298 40.0421 18.2837C39.7347 18.276 39.6171 18.276 39.2641 18.276C38.8314 18.276 38.6416 18.276 38.3911 18.2837V18.226L38.3987 18.2221Z" fill="#3B3D47"></path><path d="M41.105 18.2221C41.3631 18.2029 41.4466 18.1298 41.4466 17.6371V15.7706C41.4466 15.2934 41.3821 15.2049 41.105 15.1857V15.1279C41.2796 15.1356 41.4466 15.1433 41.6212 15.1433C41.8109 15.1433 41.921 15.1395 42.1032 15.1279V15.1857C41.8337 15.2087 41.7616 15.2934 41.7616 15.7706V17.6448C41.7616 18.1605 41.8641 18.2106 42.1032 18.226V18.2837C41.9476 18.276 41.7806 18.2683 41.5946 18.2683C41.4086 18.2683 41.2796 18.2721 41.1088 18.2837V18.226L41.105 18.2221Z" fill="#3B3D47"></path><path d="M43.0673 18.2224C43.2912 18.1955 43.3671 18.0338 43.4658 17.7221C43.7391 16.8831 44.2894 15.1051 44.2894 15.1051L44.3729 15.082C44.5741 15.9249 44.7942 16.7869 45.003 17.5989C45.113 18.0261 45.1814 18.1801 45.4281 18.2186V18.2763C45.3256 18.2724 45.1434 18.2609 44.9536 18.2609C44.7297 18.2609 44.6462 18.2686 44.4982 18.2763V18.2186C44.7714 18.1916 44.779 18.08 44.7031 17.7567C44.6386 17.495 44.5817 17.2449 44.5285 17.0294H43.8264C43.8264 17.0294 43.7201 17.4027 43.6594 17.6105C43.5265 18.0762 43.5607 18.2032 43.8643 18.2186V18.2763C43.7846 18.2724 43.6594 18.2609 43.4544 18.2609C43.3102 18.2609 43.1394 18.2686 43.0635 18.2763V18.2186L43.0673 18.2224ZM44.5058 16.9255C44.4109 16.5252 44.3084 16.1096 44.2097 15.7209L43.8605 16.9255H44.5058Z" fill="#3B3D47"></path><path d="M47.3374 18.7878C47.5044 18.7301 47.6904 18.6415 47.8118 18.4414C47.9371 18.2298 47.9295 18.0835 47.9295 17.3908V15.7667C47.9295 15.2895 47.865 15.201 47.5879 15.1818V15.124C47.7625 15.1317 47.9295 15.1394 48.1041 15.1394C48.2939 15.1394 48.4039 15.1356 48.5861 15.124V15.1818C48.3166 15.2048 48.2445 15.2895 48.2445 15.7667V17.283C48.2445 17.8141 48.2483 17.9604 48.2635 18.0296C48.2445 18.2028 48.199 18.3375 48.0889 18.4722C47.884 18.7224 47.512 18.8224 47.3602 18.834L47.3374 18.7839V18.7878Z" fill="#3B3D47"></path><path d="M49.5879 18.2221C49.846 18.2029 49.9295 18.1298 49.9295 17.6371V15.7706C49.9295 15.2934 49.865 15.2049 49.5879 15.1857V15.1279C49.7625 15.1356 49.9295 15.1433 50.1041 15.1433C50.2939 15.1433 50.4039 15.1395 50.5861 15.1279V15.1857C50.3166 15.2087 50.2445 15.2934 50.2445 15.7706V17.6448C50.2445 18.1605 50.347 18.2106 50.5861 18.226V18.2837C50.4305 18.276 50.2635 18.2683 50.0775 18.2683C49.8915 18.2683 49.7625 18.2721 49.5917 18.2837V18.226L49.5879 18.2221Z" fill="#3B3D47"></path><path d="M51.5463 18.2224C51.7702 18.1955 51.8461 18.0338 51.9448 17.7221C52.2181 16.8831 52.7684 15.1051 52.7684 15.1051L52.8519 15.082C53.0531 15.9249 53.2732 16.7869 53.482 17.5989C53.592 18.0261 53.6604 18.1801 53.9071 18.2186V18.2763C53.8046 18.2724 53.6224 18.2609 53.4326 18.2609C53.2087 18.2609 53.1252 18.2686 52.9772 18.2763V18.2186C53.2504 18.1916 53.258 18.08 53.1821 17.7567C53.1176 17.495 53.0607 17.2449 53.0075 17.0294H52.3054C52.3054 17.0294 52.1991 17.4027 52.1384 17.6105C52.0055 18.0762 52.0397 18.2032 52.3433 18.2186V18.2763C52.2636 18.2724 52.1384 18.2609 51.9334 18.2609C51.7892 18.2609 51.6184 18.2686 51.5425 18.2763V18.2186L51.5463 18.2224ZM52.9848 16.9255C52.8899 16.5252 52.7874 16.1096 52.6887 15.7209L52.3395 16.9255H52.9848Z" fill="#3B3D47"></path><path d="M56.7614 18.299C56.2907 17.4062 55.8087 16.5018 55.3267 15.6243C55.3267 16.3863 55.3267 16.8982 55.3343 17.6294C55.3494 18.1028 55.3836 18.2067 55.6569 18.2221V18.2798C55.505 18.2721 55.395 18.2644 55.2811 18.2644C55.1141 18.2644 55.023 18.2682 54.875 18.2798V18.2221C55.1065 18.1913 55.1748 18.0835 55.1824 17.6371C55.1938 16.9675 55.2014 16.5865 55.2014 15.8283C55.2014 15.3896 55.1255 15.2202 54.8788 15.1894V15.124C54.9699 15.1279 55.0534 15.1317 55.171 15.1317C55.2659 15.1317 55.3418 15.1317 55.4329 15.124C55.8504 15.9284 56.2641 16.6788 56.693 17.4524C56.6968 16.7135 56.6968 16.1516 56.693 15.7167C56.6892 15.3088 56.6589 15.201 56.3628 15.1856V15.1279C56.4615 15.1317 56.5602 15.1433 56.7424 15.1433C56.9132 15.1433 57.0536 15.1356 57.1447 15.1279V15.1856C56.8866 15.201 56.8524 15.3164 56.8411 15.6744C56.8259 16.0631 56.8183 17.1329 56.8183 17.4755C56.8183 18.0643 56.8221 18.2298 56.8259 18.3183L56.7576 18.299H56.7614Z" fill="#3B3D47"></path><path d="M58.0557 16.7252C58.0557 15.6245 58.4883 15.0703 59.0425 15.0703C59.3689 15.0703 59.5435 15.1742 59.627 15.2473C59.6915 15.3743 59.6915 15.5937 59.6839 15.7592L59.6763 16.0594H59.6004C59.5511 15.5668 59.3917 15.1704 59.0273 15.1704C58.5794 15.1704 58.4162 15.7746 58.4162 16.679C58.4162 17.5834 58.5681 18.2299 59.0653 18.2299C59.2361 18.2299 59.3385 18.176 59.4144 18.0991V17.3679C59.4144 17.06 59.3955 16.9561 59.1184 16.9253V16.8676C59.2399 16.8753 59.3613 16.883 59.5397 16.883C59.6801 16.883 59.7712 16.8791 59.8851 16.8676V16.9176C59.7447 16.9445 59.7143 17.0869 59.7143 17.3756V18.1299C59.5701 18.2299 59.2968 18.3377 59.0539 18.3377C58.4124 18.3377 58.0557 17.7758 58.0557 16.729V16.7252Z" fill="#3B3D47"></path><path d="M64.0714 15.9671C64.0714 16.1479 63.9727 16.2634 63.8664 16.3596C63.7715 16.452 63.6197 16.5559 63.4603 16.6906C63.8626 16.6213 64.0941 16.9484 64.0941 17.3448C64.0941 17.9644 63.6463 18.3262 63.0883 18.33C62.5608 18.3377 62.1167 18.0106 62.1167 17.3795C62.1167 16.7945 62.5114 16.4982 62.8758 16.4443C62.5835 16.3481 62.4052 16.121 62.4052 15.7862C62.4052 15.359 62.6784 15.0742 63.0959 15.0742C63.3692 15.0742 63.578 15.2282 63.578 15.4514C63.578 15.5437 63.4945 15.6246 63.4223 15.6323C63.373 15.3706 63.2781 15.1743 63.077 15.1743C62.8265 15.1743 62.705 15.4321 62.705 15.7516C62.705 16.198 62.8758 16.3712 63.2212 16.3981L63.2515 16.4943C62.8302 16.4866 62.4659 16.7214 62.4659 17.3602C62.4659 17.9106 62.6746 18.23 63.0921 18.23C63.5324 18.23 63.8285 17.8567 63.8285 17.3487C63.8285 17.0831 63.7601 16.7791 63.5134 16.7791C63.3578 16.7791 63.2781 16.9253 63.2781 17.0908C63.2781 17.2332 63.3237 17.3525 63.3958 17.4295C63.3654 17.4487 63.3237 17.4603 63.2895 17.4603C63.1832 17.4603 63.058 17.3756 63.058 17.1639C63.058 16.8522 63.3237 16.6983 63.4413 16.579C63.6083 16.4366 63.8209 16.2557 63.8209 16.0133C63.8209 15.9055 63.7753 15.8285 63.6918 15.8016C63.7146 15.7593 63.7753 15.7092 63.8588 15.7092C63.9917 15.7092 64.0752 15.8054 64.0752 15.9632L64.0714 15.9671Z" fill="#3B3D47"></path><path d="M66.4019 16.7021C66.4019 15.636 66.8232 15.0703 67.3583 15.0703C67.5405 15.0703 67.7417 15.0973 67.9276 15.2473C67.9922 15.3743 67.9922 15.5937 67.9846 15.7592L67.977 16.0594H67.9049C67.8631 15.5976 67.7037 15.1704 67.3545 15.1704C66.9067 15.1704 66.7624 15.79 66.7624 16.6713C66.7624 17.6065 66.8877 18.2299 67.3621 18.2299C67.7037 18.2299 67.8783 17.8951 67.9428 17.4179H68.0149L68.0036 17.6757C67.9884 17.9143 67.9694 18.0798 67.9238 18.1683C67.7796 18.2684 67.5898 18.33 67.3545 18.33C66.7852 18.33 66.4019 17.7604 66.4019 16.6982V16.7021Z" fill="#3B3D47"></path><path d="M68.9564 18.2221C69.2145 18.2028 69.298 18.1297 69.298 17.6371V15.7706C69.298 15.2934 69.2335 15.2048 68.9564 15.1856V15.1279C69.131 15.1356 69.298 15.1433 69.4688 15.1433C69.6586 15.1433 69.7687 15.1394 69.9509 15.1279V15.1856C69.6814 15.2087 69.6093 15.2934 69.6093 15.7706V16.5864H70.6416V15.7321C70.6416 15.2934 70.5392 15.1971 70.3 15.1818V15.124C70.4784 15.1317 70.634 15.1394 70.8124 15.1394C70.9908 15.1394 71.1161 15.1356 71.2945 15.124V15.1818C71.0402 15.1971 70.9529 15.2895 70.9529 15.7321V17.6332C70.9529 18.1605 71.0439 18.2105 71.2945 18.2221V18.2798C71.1161 18.2721 71.0022 18.2644 70.8238 18.2644C70.6302 18.2644 70.4746 18.2682 70.2886 18.2798V18.2221C70.5316 18.199 70.6378 18.1566 70.6378 17.6332V16.6942H69.6055V17.6409C69.6055 18.1566 69.7079 18.2067 69.9471 18.2221V18.2798C69.7914 18.2721 69.6244 18.2644 69.4385 18.2644C69.2525 18.2644 69.1234 18.2682 68.9526 18.2798V18.2221H68.9564Z" fill="#3B3D47"></path><path d="M72.2621 18.2224C72.486 18.1955 72.5619 18.0338 72.6606 17.7221C72.9339 16.8831 73.4842 15.1051 73.4842 15.1051L73.5677 15.082C73.7689 15.9249 73.989 16.7869 74.1978 17.5989C74.3079 18.0261 74.3762 18.1801 74.6229 18.2186V18.2763C74.5204 18.2724 74.3382 18.2609 74.1485 18.2609C73.9245 18.2609 73.841 18.2686 73.693 18.2763V18.2186C73.9663 18.1916 73.9739 18.08 73.8979 17.7567C73.8334 17.495 73.7765 17.2449 73.7234 17.0294H73.0212C73.0212 17.0294 72.9149 17.4027 72.8542 17.6105C72.7213 18.0762 72.7555 18.2032 73.0591 18.2186V18.2763C72.9794 18.2724 72.8542 18.2609 72.6492 18.2609C72.505 18.2609 72.3342 18.2686 72.2583 18.2763V18.2186L72.2621 18.2224ZM73.7006 16.9255C73.6057 16.5252 73.5032 16.1096 73.4045 15.7209L73.0553 16.9255H73.7006Z" fill="#3B3D47"></path><path d="M77.0747 18.0144C76.9912 17.8951 76.8774 17.6834 76.7787 17.4486C76.6762 17.2023 76.6231 17.0561 76.5472 16.8329C76.4447 16.8329 76.3308 16.829 76.2397 16.8098V17.6449C76.2397 18.1606 76.3422 18.2106 76.5813 18.226V18.2837C76.4257 18.2761 76.2587 18.2684 76.0727 18.2684C75.8868 18.2684 75.7577 18.2722 75.5869 18.2837V18.226C75.845 18.2068 75.9285 18.1337 75.9285 17.6411V15.7745C75.9285 15.2973 75.864 15.2088 75.5869 15.1896V15.1318H76.4219C76.9229 15.1318 77.3177 15.3512 77.3063 15.9747C77.3025 16.3018 77.1279 16.5904 76.8242 16.7174C76.9077 16.9522 77.0064 17.2023 77.1658 17.5102C77.4467 18.0682 77.6365 18.2068 77.8756 18.226V18.2837C77.8263 18.2914 77.7086 18.303 77.6289 18.303C77.3632 18.303 77.2076 18.1914 77.0785 18.0182L77.0747 18.0144ZM76.9533 15.9939C76.9533 15.482 76.7711 15.205 76.2435 15.2088C76.2397 15.4051 76.2397 15.5282 76.2397 15.7245V16.7482C76.68 16.7559 76.9571 16.5519 76.9571 15.99L76.9533 15.9939Z" fill="#3B3D47"></path><path d="M78.7488 18.2221C79.0069 18.2029 79.0904 18.1298 79.0904 17.6371V15.7706C79.0904 15.2934 79.0259 15.2049 78.7488 15.1857V15.1279C78.9234 15.1356 79.0904 15.1433 79.2612 15.1433C79.451 15.1433 79.561 15.1395 79.7432 15.1279V15.1857C79.4737 15.2087 79.4016 15.2934 79.4016 15.7706V17.591C79.4016 18.099 79.4586 18.1567 79.8229 18.1567C80.1873 18.1567 80.3847 17.9219 80.4568 17.3985H80.5137L80.4909 17.9065C80.4757 18.1451 80.4454 18.2298 80.3922 18.2837C80.0848 18.276 79.9671 18.276 79.6142 18.276C79.1815 18.276 78.9917 18.276 78.7412 18.2837V18.226L78.7488 18.2221Z" fill="#3B3D47"></path><path d="M81.4473 18.2221C81.7054 18.2029 81.7889 18.1298 81.7889 17.6371V15.7706C81.7889 15.2934 81.7243 15.2049 81.4473 15.1857V15.1279C81.6257 15.1318 82.0659 15.1356 82.3468 15.1356C82.6087 15.1356 82.882 15.1318 83.0528 15.1279C83.1021 15.2203 83.1059 15.3781 83.1021 15.5436L83.0869 15.9053H83.0376C82.9465 15.3127 82.8174 15.228 82.1077 15.2357C82.1039 15.2934 82.1039 15.5128 82.1039 15.6667V16.6058C82.7529 16.6058 82.863 16.5634 82.9123 16.2094H82.9617V17.1676H82.9123C82.8782 16.7366 82.7453 16.702 82.1039 16.702V17.6102C82.1039 18.1144 82.2026 18.1605 82.5442 18.1605C82.9617 18.1605 83.1211 17.9335 83.1894 17.4024H83.2463L83.2236 17.9104C83.216 18.1221 83.1894 18.2183 83.1249 18.2875C82.8592 18.2798 82.6846 18.2798 82.4189 18.2798C82.0963 18.2798 81.7699 18.2798 81.4473 18.2875V18.2298V18.2221Z" fill="#3B3D47"></path><path d="M84.3585 18.1722C84.3016 18.0875 84.2826 17.9336 84.2902 17.7412L84.3091 17.264H84.3775C84.4116 17.9182 84.6204 18.2299 84.9734 18.2299C85.2656 18.2299 85.4933 18.0067 85.4933 17.541C85.4933 17.2101 85.2998 16.9599 84.9734 16.8483C84.6469 16.7367 84.3281 16.4981 84.3281 15.9401C84.3281 15.4128 84.628 15.0703 85.0834 15.0703C85.277 15.0703 85.4592 15.1049 85.5806 15.1896C85.6527 15.3089 85.6376 15.5206 85.6376 15.5976L85.63 16.0055H85.5617C85.5351 15.5321 85.3947 15.1665 85.0493 15.1665C84.7646 15.1665 84.5824 15.4744 84.5824 15.8285C84.5824 16.1825 84.7798 16.398 85.0682 16.5096C85.5085 16.6674 85.7362 16.9176 85.7362 17.391C85.7362 17.9721 85.4174 18.3377 84.9354 18.3377C84.7077 18.3377 84.4344 18.2569 84.3585 18.176V18.1722Z" fill="#3B3D47"></path><path d="M88.0023 18.2221C88.2604 18.2028 88.3439 18.1297 88.3439 17.6371V15.7706C88.3439 15.2934 88.2794 15.2048 88.0023 15.1856V15.1279C88.1769 15.1356 88.3439 15.1433 88.5147 15.1433C88.7045 15.1433 88.8146 15.1394 88.9967 15.1279V15.1856C88.7273 15.2087 88.6552 15.2934 88.6552 15.7706V16.5864H89.6875V15.7321C89.6875 15.2934 89.585 15.1971 89.3459 15.1818V15.124C89.5243 15.1317 89.6799 15.1394 89.8583 15.1394C90.0367 15.1394 90.162 15.1356 90.3403 15.124V15.1818C90.0861 15.1971 89.9988 15.2895 89.9988 15.7321V17.6332C89.9988 18.1605 90.0898 18.2105 90.3403 18.2221V18.2798C90.162 18.2721 90.0481 18.2644 89.8697 18.2644C89.6761 18.2644 89.5205 18.2682 89.3345 18.2798V18.2221C89.5775 18.199 89.6837 18.1566 89.6837 17.6332V16.6942H88.6514V17.6409C88.6514 18.1566 88.7538 18.2067 88.993 18.2221V18.2798C88.8373 18.2721 88.6703 18.2644 88.4844 18.2644C88.2984 18.2644 88.1693 18.2682 87.9985 18.2798V18.2221H88.0023Z" fill="#3B3D47"></path><path d="M91.3041 18.2224C91.528 18.1955 91.6039 18.0338 91.7026 17.7221C91.9759 16.8831 92.5262 15.1051 92.5262 15.1051L92.6097 15.082C92.8109 15.9249 93.031 16.7869 93.2398 17.5989C93.3499 18.0261 93.4182 18.1801 93.6649 18.2186V18.2763C93.5624 18.2724 93.3802 18.2609 93.1904 18.2609C92.9665 18.2609 92.883 18.2686 92.735 18.2763V18.2186C93.0083 18.1916 93.0158 18.08 92.9399 17.7567C92.8754 17.495 92.8185 17.2449 92.7654 17.0294H92.0632C92.0632 17.0294 91.9569 17.4027 91.8962 17.6105C91.7633 18.0762 91.7975 18.2032 92.1011 18.2186V18.2763C92.0214 18.2724 91.8962 18.2609 91.6912 18.2609C91.547 18.2609 91.3762 18.2686 91.3003 18.2763V18.2186L91.3041 18.2224ZM92.7426 16.9255C92.6477 16.5252 92.5452 16.1096 92.4465 15.7209L92.0973 16.9255H92.7426Z" fill="#3B3D47"></path><path d="M94.4925 15.8129C94.39 15.3973 94.3444 15.2125 94.1167 15.1818V15.124C94.2116 15.1279 94.3748 15.1394 94.5456 15.1394C94.7164 15.1394 94.8948 15.1317 94.9897 15.124V15.1818C94.7619 15.2087 94.7202 15.3588 94.7809 15.6359C94.9479 16.3979 95.1073 17.0868 95.225 17.5678C95.373 17.029 95.54 16.4287 95.6766 15.9053C95.5666 15.4204 95.5096 15.2241 95.2933 15.1856V15.1279C95.4451 15.1356 95.5704 15.1433 95.7032 15.1433C95.8474 15.1433 95.9727 15.1394 96.1359 15.1279V15.1856C95.9082 15.2125 95.8626 15.3318 95.9309 15.6397C96.1017 16.421 96.2536 17.0868 96.375 17.5486C96.4737 17.1406 96.6027 16.598 96.7735 15.786C96.8684 15.3357 96.8077 15.2164 96.5534 15.1856V15.1279C96.6103 15.1317 96.7963 15.1433 96.9367 15.1433C97.0658 15.1433 97.1835 15.1394 97.2859 15.1279V15.1856C97.1189 15.2164 97.0544 15.3164 96.9633 15.6782C96.7659 16.4441 96.4509 17.664 96.3105 18.2913L96.2308 18.3144C96.1245 17.8141 95.9499 17.0213 95.7336 16.1362C95.5893 16.6519 95.2933 17.7141 95.1643 18.2913L95.0808 18.3144C94.9517 17.7218 94.6443 16.4133 94.4962 15.8168L94.4925 15.8129Z" fill="#3B3D47"></path><path d="M99.8894 18.0489C99.7794 17.9219 99.6427 17.7179 99.4833 17.3985C99.3315 17.1021 99.21 16.8405 99.1 16.6018L98.895 16.8635V17.6371C98.895 18.1528 98.9975 18.2028 99.2366 18.2182V18.2759C99.081 18.2682 98.914 18.2605 98.728 18.2605C98.542 18.2605 98.413 18.2644 98.2422 18.2759V18.2182C98.5003 18.199 98.5838 18.1258 98.5838 17.6332V15.7667C98.5838 15.2895 98.5231 15.201 98.2422 15.1818V15.124C98.4168 15.1317 98.5838 15.1394 98.7546 15.1394C98.9444 15.1394 99.0544 15.1356 99.2366 15.124V15.1818C98.9671 15.2048 98.895 15.2895 98.895 15.7667V16.7288C99.0734 16.4902 99.4947 15.9091 99.7756 15.4742C99.9046 15.2741 99.8021 15.2125 99.6275 15.1856V15.1279C99.7224 15.1317 99.897 15.1356 100.034 15.1356C100.159 15.1356 100.311 15.1317 100.39 15.1279V15.1856C100.189 15.201 100.064 15.3357 99.9122 15.532C99.6959 15.8091 99.3201 16.3286 99.3201 16.3286C99.4605 16.6365 99.6465 17.0175 99.8249 17.3446C100.242 18.1028 100.394 18.2067 100.668 18.2259V18.2836C100.611 18.299 100.55 18.3029 100.478 18.3029C100.144 18.3029 100.003 18.1836 99.8856 18.0527L99.8894 18.0489Z" fill="#3B3D47"></path><path d="M101.552 18.2221C101.81 18.2029 101.894 18.1298 101.894 17.6371V15.7706C101.894 15.2934 101.829 15.2049 101.552 15.1857V15.1279C101.727 15.1356 101.894 15.1433 102.068 15.1433C102.258 15.1433 102.368 15.1395 102.55 15.1279V15.1857C102.281 15.2087 102.209 15.2934 102.209 15.7706V17.6448C102.209 18.1605 102.311 18.2106 102.55 18.226V18.2837C102.395 18.276 102.228 18.2683 102.042 18.2683C101.856 18.2683 101.727 18.2721 101.556 18.2837V18.226L101.552 18.2221Z" fill="#3B3D47"></path><path d="M105.439 18.299C104.968 17.4062 104.486 16.5018 104.004 15.6243C104.004 16.3863 104.004 16.8982 104.012 17.6294C104.027 18.1028 104.061 18.2067 104.334 18.2221V18.2798C104.182 18.2721 104.072 18.2644 103.958 18.2644C103.791 18.2644 103.7 18.2682 103.552 18.2798V18.2221C103.784 18.1913 103.852 18.0835 103.86 17.6371C103.871 16.9675 103.879 16.5865 103.879 15.8283C103.879 15.3896 103.803 15.2202 103.556 15.1894V15.124C103.647 15.1279 103.731 15.1317 103.848 15.1317C103.943 15.1317 104.019 15.1317 104.11 15.124C104.528 15.9284 104.941 16.6788 105.37 17.4524C105.374 16.7135 105.374 16.1516 105.37 15.7167C105.366 15.3088 105.336 15.201 105.04 15.1856V15.1279C105.139 15.1317 105.237 15.1433 105.42 15.1433C105.59 15.1433 105.731 15.1356 105.822 15.1279V15.1856C105.564 15.201 105.53 15.3164 105.518 15.6744C105.503 16.0631 105.496 17.1329 105.496 17.4755C105.496 18.0643 105.499 18.2298 105.503 18.3183L105.435 18.299H105.439Z" fill="#3B3D47"></path><path d="M106.816 18.1722C106.76 18.0875 106.741 17.9336 106.748 17.7412L106.767 17.264H106.835C106.87 17.9182 107.078 18.2299 107.431 18.2299C107.724 18.2299 107.951 18.0067 107.951 17.541C107.951 17.2101 107.758 16.9599 107.431 16.8483C107.105 16.7367 106.786 16.4981 106.786 15.9401C106.786 15.4128 107.086 15.0703 107.541 15.0703C107.735 15.0703 107.917 15.1049 108.039 15.1896C108.111 15.3089 108.096 15.5206 108.096 15.5976L108.088 16.0055H108.02C107.993 15.5321 107.853 15.1665 107.507 15.1665C107.223 15.1665 107.04 15.4744 107.04 15.8285C107.04 16.1825 107.238 16.398 107.526 16.5096C107.967 16.6674 108.194 16.9176 108.194 17.391C108.194 17.9721 107.875 18.3377 107.393 18.3377C107.166 18.3377 106.892 18.2569 106.816 18.176V18.1722Z" fill="#3B3D47"></path><path d="M110.851 18.2219C111.086 18.2027 111.196 18.1565 111.196 17.6639V15.9552C111.196 15.6858 111.193 15.2432 111.193 15.2432C110.646 15.2432 110.551 15.3741 110.456 15.9744L110.399 15.9667V15.4241C110.399 15.2817 110.418 15.1893 110.456 15.1162C110.506 15.1508 110.631 15.1508 110.707 15.1508H112.009C112.085 15.1508 112.198 15.1508 112.259 15.1162C112.301 15.1893 112.316 15.2855 112.316 15.4241V15.9667L112.259 15.9744C112.161 15.3702 112.073 15.2471 111.523 15.2432C111.523 15.2432 111.519 15.6858 111.519 15.9552V17.6678C111.519 18.1835 111.648 18.2065 111.861 18.2219V18.2797C111.72 18.272 111.519 18.2643 111.356 18.2643C111.193 18.2643 111.022 18.2681 110.859 18.2797V18.2219H110.851Z" fill="#3B3D47"></path><path d="M113.288 18.2221C113.546 18.2029 113.629 18.1298 113.629 17.6371V15.7706C113.629 15.2934 113.568 15.2049 113.288 15.1857V15.1279C113.466 15.1318 113.906 15.1356 114.187 15.1356C114.449 15.1356 114.722 15.1318 114.893 15.1279C114.942 15.2203 114.946 15.3781 114.942 15.5436L114.927 15.9053H114.878C114.787 15.3127 114.658 15.228 113.948 15.2357C113.944 15.2934 113.944 15.5128 113.944 15.6667V16.6058C114.593 16.6058 114.703 16.5634 114.753 16.2094H114.802V17.1676H114.753C114.718 16.7366 114.586 16.702 113.944 16.702V17.6102C113.944 18.1144 114.043 18.1605 114.384 18.1605C114.802 18.1605 114.961 17.9335 115.03 17.4024H115.087L115.064 17.9104C115.056 18.1221 115.03 18.2183 114.965 18.2875C114.7 18.2798 114.525 18.2798 114.259 18.2798C113.937 18.2798 113.61 18.2798 113.288 18.2875V18.2298V18.2221Z" fill="#3B3D47"></path><path d="M116.039 18.2224C116.263 18.1955 116.339 18.0338 116.438 17.7221C116.711 16.8831 117.262 15.1051 117.262 15.1051L117.345 15.082C117.546 15.9249 117.766 16.7869 117.975 17.5989C118.085 18.0261 118.154 18.1801 118.4 18.2186V18.2763C118.298 18.2724 118.116 18.2609 117.926 18.2609C117.702 18.2609 117.618 18.2686 117.47 18.2763V18.2186C117.744 18.1916 117.751 18.08 117.675 17.7567C117.611 17.495 117.554 17.2449 117.501 17.0294H116.799C116.799 17.0294 116.692 17.4027 116.632 17.6105C116.499 18.0762 116.533 18.2032 116.836 18.2186V18.2763C116.757 18.2724 116.632 18.2609 116.427 18.2609C116.282 18.2609 116.112 18.2686 116.036 18.2763V18.2186L116.039 18.2224ZM117.478 16.9255C117.383 16.5252 117.281 16.1096 117.182 15.7209L116.833 16.9255H117.478Z" fill="#3B3D47"></path><path d="M119.892 15.6013C119.861 16.2363 119.835 16.8751 119.816 17.6141C119.801 18.1221 119.835 18.1952 120.093 18.2221V18.2798C119.987 18.276 119.896 18.2644 119.736 18.2644C119.577 18.2644 119.444 18.2721 119.345 18.2798V18.2221C119.615 18.1913 119.626 18.1182 119.664 17.6025C119.71 16.9598 119.729 16.4518 119.767 15.6898C119.789 15.305 119.748 15.2318 119.463 15.1857V15.1279C119.562 15.1318 119.668 15.1356 119.804 15.1356C119.922 15.1356 120.028 15.1356 120.101 15.1318C120.317 15.9784 120.567 16.8328 120.769 17.5448C120.996 16.802 121.228 16.04 121.486 15.1318C121.569 15.1356 121.687 15.1356 121.79 15.1356C121.919 15.1356 121.991 15.1318 122.086 15.1279V15.1857C121.778 15.2087 121.793 15.4435 121.793 15.7244C121.79 16.5288 121.801 17.3408 121.812 17.7103C121.827 18.0951 121.858 18.2029 122.127 18.2221V18.2798C121.983 18.2721 121.854 18.2644 121.679 18.2644C121.474 18.2644 121.334 18.2683 121.178 18.2798V18.2221C121.459 18.199 121.497 18.0528 121.501 17.691C121.505 17.1099 121.493 16.2478 121.478 15.5974C121.22 16.4595 120.951 17.337 120.7 18.2644L120.643 18.2875C120.412 17.4178 120.173 16.5596 119.899 15.6051L119.892 15.6013Z" fill="#3B3D47"></path><path d="M126.841 18.2224C127.065 18.1955 127.141 18.0338 127.24 17.7221C127.513 16.8831 128.063 15.1051 128.063 15.1051L128.147 15.082C128.348 15.9249 128.568 16.7869 128.777 17.5989C128.887 18.0261 128.955 18.1801 129.202 18.2186V18.2763C129.1 18.2724 128.917 18.2609 128.728 18.2609C128.504 18.2609 128.42 18.2686 128.272 18.2763V18.2186C128.545 18.1916 128.553 18.08 128.477 17.7567C128.413 17.495 128.356 17.2449 128.302 17.0294H127.6C127.6 17.0294 127.494 17.4027 127.433 17.6105C127.3 18.0762 127.335 18.2032 127.638 18.2186V18.2763C127.559 18.2724 127.433 18.2609 127.228 18.2609C127.084 18.2609 126.913 18.2686 126.837 18.2763V18.2186L126.841 18.2224ZM128.28 16.9255C128.185 16.5252 128.082 16.1096 127.984 15.7209L127.634 16.9255H128.28Z" fill="#3B3D47"></path><path d="M130.382 18.2219C130.618 18.2027 130.728 18.1565 130.728 17.6639V15.9552C130.728 15.6858 130.724 15.2432 130.724 15.2432C130.177 15.2432 130.082 15.3741 129.988 15.9744L129.931 15.9667V15.4241C129.931 15.2817 129.95 15.1893 129.988 15.1162C130.037 15.1508 130.162 15.1508 130.238 15.1508H131.54C131.616 15.1508 131.73 15.1508 131.79 15.1162C131.832 15.1893 131.847 15.2855 131.847 15.4241V15.9667L131.79 15.9744C131.692 15.3702 131.604 15.2471 131.054 15.2432C131.054 15.2432 131.05 15.6858 131.05 15.9552V17.6678C131.05 18.1835 131.179 18.2065 131.392 18.2219V18.2797C131.251 18.272 131.05 18.2643 130.887 18.2643C130.724 18.2643 130.553 18.2681 130.39 18.2797V18.2219H130.382Z" fill="#3B3D47"></path><path d="M134.03 18.2221C134.288 18.2029 134.371 18.1298 134.371 17.6371V15.7706C134.371 15.2934 134.307 15.2049 134.03 15.1857V15.1279H134.857C135.138 15.1279 135.37 15.1741 135.563 15.3011C135.943 15.5513 136.114 16.0362 136.114 16.6789C136.114 17.2715 135.931 17.8527 135.537 18.1105C135.37 18.2183 135.165 18.2837 134.891 18.2837H134.03V18.226V18.2221ZM135.745 16.6904C135.745 16.1555 135.681 15.5474 135.275 15.3165C135.123 15.2318 134.952 15.2087 134.69 15.2087C134.69 15.3396 134.686 15.6128 134.686 15.863V17.6525C134.686 18.0913 134.728 18.1952 135.017 18.1913C135.487 18.1836 135.745 17.5602 135.745 16.6904Z" fill="#3B3D47"></path><path d="M137.176 16.6982C137.176 15.6745 137.579 15.0703 138.125 15.0703C138.672 15.0703 139.078 15.6784 139.078 16.6982C139.078 17.7181 138.672 18.3338 138.125 18.3338C137.579 18.3338 137.176 17.7219 137.176 16.6982ZM138.71 16.6982C138.71 15.7476 138.539 15.1704 138.125 15.1704C137.711 15.1704 137.541 15.7476 137.541 16.6982C137.541 17.6488 137.711 18.2299 138.125 18.2299C138.539 18.2299 138.71 17.6488 138.71 16.6982Z" fill="#3B3D47"></path><path d="M140.406 17.9257C140.327 17.7679 140.281 17.4754 140.281 16.825V15.7667C140.281 15.2895 140.217 15.2009 139.939 15.1817V15.124C140.114 15.1317 140.281 15.1394 140.456 15.1394C140.642 15.1394 140.755 15.1355 140.938 15.124V15.1817C140.668 15.2048 140.596 15.2895 140.596 15.7667V16.7942C140.596 17.129 140.6 17.46 140.645 17.6524C140.718 17.9603 140.888 18.1065 141.146 18.1065C141.367 18.1065 141.541 18.0142 141.644 17.8102C141.746 17.6062 141.769 17.2676 141.769 16.8173V15.8552C141.769 15.3125 141.739 15.2009 141.435 15.1778V15.1201C141.526 15.124 141.678 15.1355 141.83 15.1355C141.974 15.1355 142.129 15.1278 142.213 15.1201V15.1778C141.955 15.2048 141.909 15.2818 141.909 15.8552V16.8058C141.909 17.3253 141.883 17.6447 141.765 17.8833C141.625 18.1604 141.397 18.3182 141.097 18.3182C140.721 18.3182 140.528 18.1835 140.403 17.918L140.406 17.9257Z" fill="#3B3D47"></path><path d="M143.097 16.7252C143.097 15.6245 143.53 15.0703 144.084 15.0703C144.41 15.0703 144.585 15.1742 144.669 15.2473C144.733 15.3743 144.733 15.5937 144.725 15.7592L144.718 16.0594H144.642C144.593 15.5668 144.433 15.1704 144.069 15.1704C143.621 15.1704 143.458 15.7746 143.458 16.679C143.458 17.5834 143.61 18.2299 144.107 18.2299C144.278 18.2299 144.38 18.176 144.456 18.0991V17.3679C144.456 17.06 144.437 16.9561 144.16 16.9253V16.8676C144.281 16.8753 144.403 16.883 144.581 16.883C144.722 16.883 144.813 16.8791 144.927 16.8676V16.9176C144.786 16.9445 144.756 17.0869 144.756 17.3756V18.1299C144.612 18.2299 144.338 18.3377 144.095 18.3377C143.454 18.3377 143.097 17.7758 143.097 16.729V16.7252Z" fill="#3B3D47"></path><path d="M145.792 18.2221C146.05 18.2029 146.134 18.1298 146.134 17.6371V15.7706C146.134 15.2934 146.069 15.2049 145.792 15.1857V15.1279C145.967 15.1356 146.134 15.1433 146.305 15.1433C146.494 15.1433 146.604 15.1395 146.787 15.1279V15.1857C146.517 15.2087 146.445 15.2934 146.445 15.7706V17.591C146.445 18.099 146.502 18.1567 146.866 18.1567C147.231 18.1567 147.428 17.9219 147.5 17.3985H147.557L147.534 17.9065C147.519 18.1451 147.489 18.2298 147.436 18.2837C147.128 18.276 147.011 18.276 146.658 18.276C146.225 18.276 146.035 18.276 145.785 18.2837V18.226L145.792 18.2221Z" fill="#3B3D47"></path><path d="M148.46 18.2224C148.684 18.1955 148.76 18.0338 148.859 17.7221C149.132 16.8831 149.682 15.1051 149.682 15.1051L149.766 15.082C149.967 15.9249 150.187 16.7869 150.396 17.5989C150.506 18.0261 150.574 18.1801 150.821 18.2186V18.2763C150.719 18.2724 150.536 18.2609 150.347 18.2609C150.123 18.2609 150.039 18.2686 149.891 18.2763V18.2186C150.165 18.1916 150.172 18.08 150.096 17.7567C150.032 17.495 149.975 17.2449 149.922 17.0294H149.219C149.219 17.0294 149.113 17.4027 149.052 17.6105C148.92 18.0762 148.954 18.2032 149.257 18.2186V18.2763C149.178 18.2724 149.052 18.2609 148.847 18.2609C148.703 18.2609 148.532 18.2686 148.457 18.2763V18.2186L148.46 18.2224ZM149.899 16.9255C149.804 16.5252 149.701 16.1096 149.603 15.7209L149.254 16.9255H149.899Z" fill="#3B3D47"></path><path d="M151.858 18.1722C151.801 18.0875 151.782 17.9336 151.789 17.7412L151.808 17.264H151.876C151.911 17.9182 152.119 18.2299 152.472 18.2299C152.765 18.2299 152.992 18.0067 152.992 17.541C152.992 17.2101 152.799 16.9599 152.472 16.8483C152.146 16.7367 151.827 16.4981 151.827 15.9401C151.827 15.4128 152.127 15.0703 152.582 15.0703C152.776 15.0703 152.958 15.1049 153.08 15.1896C153.152 15.3089 153.137 15.5206 153.137 15.5976L153.129 16.0055H153.061C153.034 15.5321 152.894 15.1665 152.548 15.1665C152.264 15.1665 152.081 15.4744 152.081 15.8285C152.081 16.1825 152.279 16.398 152.567 16.5096C153.004 16.6674 153.231 16.9176 153.231 17.391C153.231 17.9721 152.913 18.3377 152.431 18.3377C152.203 18.3377 151.93 18.2569 151.854 18.176L151.858 18.1722Z" fill="#3B3D47"></path><path d="M155.497 18.2221C155.755 18.2029 155.839 18.1298 155.839 17.6371V15.7706C155.839 15.2934 155.778 15.2049 155.497 15.1857V15.1279C155.675 15.1318 156.116 15.1356 156.397 15.1356C156.658 15.1356 156.932 15.1318 157.103 15.1279C157.152 15.2203 157.156 15.3781 157.152 15.5436L157.137 15.9053H157.087C156.996 15.3127 156.867 15.228 156.157 15.2357C156.154 15.2934 156.154 15.5128 156.154 15.6667V16.6058C156.803 16.6058 156.913 16.5634 156.962 16.2094H157.011V17.1676H156.962C156.928 16.7366 156.795 16.702 156.154 16.702V17.6102C156.154 18.1144 156.252 18.1605 156.594 18.1605C157.011 18.1605 157.171 17.9335 157.239 17.4024H157.296L157.273 17.9104C157.266 18.1221 157.239 18.2183 157.175 18.2875C156.909 18.2798 156.734 18.2798 156.469 18.2798C156.146 18.2798 155.82 18.2798 155.497 18.2875V18.2298V18.2221Z" fill="#3B3D47"></path><path d="M158.28 18.2221C158.538 18.2029 158.621 18.1298 158.621 17.6371V15.7706C158.621 15.2934 158.557 15.2049 158.28 15.1857V15.1279C158.454 15.1356 158.621 15.1433 158.792 15.1433C158.982 15.1433 159.092 15.1395 159.274 15.1279V15.1857C159.005 15.2087 158.932 15.2934 158.932 15.7706V17.591C158.932 18.099 158.989 18.1567 159.354 18.1567C159.718 18.1567 159.915 17.9219 159.988 17.3985H160.044L160.022 17.9065C160.007 18.1451 159.976 18.2298 159.923 18.2837C159.616 18.276 159.498 18.276 159.145 18.276C158.712 18.276 158.522 18.276 158.272 18.2837V18.226L158.28 18.2221Z" fill="#3B3D47"></path><path d="M160.978 18.2221C161.236 18.2029 161.319 18.1298 161.319 17.6371V15.7706C161.319 15.2934 161.259 15.2049 160.978 15.1857V15.1279C161.152 15.1356 161.319 15.1433 161.49 15.1433C161.68 15.1433 161.79 15.1395 161.972 15.1279V15.1857C161.703 15.2087 161.631 15.2934 161.631 15.7706V17.591C161.631 18.099 161.688 18.1567 162.052 18.1567C162.416 18.1567 162.614 17.9219 162.686 17.3985H162.743L162.72 17.9065C162.705 18.1451 162.674 18.2298 162.621 18.2837C162.314 18.276 162.196 18.276 161.843 18.276C161.41 18.276 161.221 18.276 160.97 18.2837V18.226L160.978 18.2221Z" fill="#3B3D47"></path><path d="M163.688 18.2221C163.946 18.2029 164.03 18.1298 164.03 17.6371V15.7706C164.03 15.2934 163.965 15.2049 163.688 15.1857V15.1279C163.863 15.1356 164.03 15.1433 164.204 15.1433C164.394 15.1433 164.504 15.1395 164.686 15.1279V15.1857C164.417 15.2087 164.345 15.2934 164.345 15.7706V17.6448C164.345 18.1605 164.447 18.2106 164.686 18.226V18.2837C164.531 18.276 164.364 18.2683 164.178 18.2683C163.992 18.2683 163.863 18.2721 163.692 18.2837V18.226L163.688 18.2221Z" fill="#3B3D47"></path><path d="M166.208 15.6013C166.178 16.2363 166.151 16.8751 166.132 17.6141C166.117 18.1221 166.151 18.1952 166.409 18.2221V18.2798C166.303 18.276 166.212 18.2644 166.053 18.2644C165.893 18.2644 165.76 18.2721 165.662 18.2798V18.2221C165.931 18.1913 165.942 18.1182 165.98 17.6025C166.026 16.9598 166.045 16.4518 166.083 15.6898C166.106 15.305 166.064 15.2318 165.779 15.1857V15.1279C165.878 15.1318 165.984 15.1356 166.121 15.1356C166.239 15.1356 166.345 15.1356 166.417 15.1318C166.633 15.9784 166.884 16.8328 167.085 17.5448C167.313 16.802 167.544 16.04 167.802 15.1318C167.886 15.1356 168.003 15.1356 168.106 15.1356C168.235 15.1356 168.307 15.1318 168.402 15.1279V15.1857C168.095 15.2087 168.11 15.4435 168.11 15.7244C168.106 16.5288 168.117 17.3408 168.129 17.7103C168.144 18.0951 168.174 18.2029 168.444 18.2221V18.2798C168.299 18.2721 168.17 18.2644 167.996 18.2644C167.791 18.2644 167.65 18.2683 167.495 18.2798V18.2221C167.776 18.199 167.814 18.0528 167.817 17.691C167.821 17.1099 167.81 16.2478 167.795 15.5974C167.537 16.4595 167.267 17.337 167.017 18.2644L166.96 18.2875C166.728 17.4178 166.489 16.5596 166.216 15.6013H166.208Z" fill="#3B3D47"></path><path d="M169.392 18.2224C169.616 18.1955 169.692 18.0338 169.791 17.7221C170.064 16.8831 170.615 15.1051 170.615 15.1051L170.698 15.082C170.899 15.9249 171.119 16.7869 171.328 17.5989C171.438 18.0261 171.507 18.1801 171.753 18.2186V18.2763C171.651 18.2724 171.469 18.2609 171.279 18.2609C171.055 18.2609 170.971 18.2686 170.823 18.2763V18.2186C171.097 18.1916 171.104 18.08 171.028 17.7567C170.964 17.495 170.907 17.2449 170.854 17.0294H170.152C170.152 17.0294 170.045 17.4027 169.985 17.6105C169.852 18.0762 169.886 18.2032 170.19 18.2186V18.2763C170.11 18.2724 169.985 18.2609 169.78 18.2609C169.635 18.2609 169.465 18.2686 169.389 18.2763V18.2186L169.392 18.2224ZM170.831 16.9255C170.736 16.5252 170.634 16.1096 170.535 15.7209L170.186 16.9255H170.831Z" fill="#3B3D47"></path><path d="M174.608 18.299C174.137 17.4062 173.655 16.5018 173.173 15.6243C173.173 16.3863 173.173 16.8982 173.18 17.6294C173.196 18.1028 173.23 18.2067 173.503 18.2221V18.2798C173.351 18.2721 173.241 18.2644 173.127 18.2644C172.96 18.2644 172.869 18.2682 172.721 18.2798V18.2221C172.953 18.1913 173.021 18.0835 173.029 17.6371C173.04 16.9675 173.048 16.5865 173.048 15.8283C173.048 15.3896 172.972 15.2202 172.725 15.1894V15.124C172.816 15.1279 172.9 15.1317 173.017 15.1317C173.112 15.1317 173.188 15.1317 173.279 15.124C173.697 15.9284 174.11 16.6788 174.539 17.4524C174.543 16.7135 174.543 16.1516 174.539 15.7167C174.535 15.3088 174.505 15.201 174.209 15.1856V15.1279C174.308 15.1317 174.406 15.1433 174.589 15.1433C174.759 15.1433 174.9 15.1356 174.991 15.1279V15.1856C174.733 15.201 174.699 15.3164 174.687 15.6744C174.672 16.0631 174.664 17.1329 174.664 17.4755C174.664 18.0643 174.668 18.2298 174.672 18.3183L174.604 18.299H174.608Z" fill="#3B3D47"></path><path d="M178.665 18.0144C178.582 17.8951 178.468 17.6834 178.369 17.4486C178.267 17.2023 178.213 17.0561 178.138 16.8329C178.035 16.8329 177.921 16.829 177.83 16.8098V17.6449C177.83 18.1606 177.933 18.2106 178.172 18.226V18.2837C178.016 18.2761 177.849 18.2684 177.663 18.2684C177.477 18.2684 177.348 18.2722 177.177 18.2837V18.226C177.435 18.2068 177.519 18.1337 177.519 17.6411V15.7745C177.519 15.2973 177.458 15.2088 177.177 15.1896V15.1318H178.012C178.513 15.1318 178.908 15.3512 178.897 15.9747C178.893 16.3018 178.718 16.5904 178.415 16.7174C178.498 16.9522 178.597 17.2023 178.756 17.5102C179.037 18.0682 179.227 18.2068 179.466 18.226V18.2837C179.417 18.2914 179.299 18.303 179.219 18.303C178.954 18.303 178.798 18.1914 178.669 18.0182L178.665 18.0144ZM178.544 15.9939C178.544 15.482 178.361 15.205 177.834 15.2088C177.83 15.4051 177.83 15.5282 177.83 15.7245V16.7482C178.27 16.7559 178.547 16.5519 178.547 15.99L178.544 15.9939Z" fill="#3B3D47"></path><path d="M180.339 18.2221C180.597 18.2029 180.68 18.1298 180.68 17.6371V15.7706C180.68 15.2934 180.616 15.2049 180.339 15.1857V15.1279C180.517 15.1318 180.958 15.1356 181.238 15.1356C181.5 15.1356 181.774 15.1318 181.944 15.1279C181.994 15.2203 181.997 15.3781 181.994 15.5436L181.979 15.9053H181.929C181.838 15.3127 181.709 15.228 180.999 15.2357C180.995 15.2934 180.995 15.5128 180.995 15.6667V16.6058C181.645 16.6058 181.755 16.5634 181.804 16.2094H181.853V17.1676H181.804C181.77 16.7366 181.637 16.702 180.995 16.702V17.6102C180.995 18.1144 181.094 18.1605 181.436 18.1605C181.853 18.1605 182.013 17.9335 182.081 17.4024H182.138L182.115 17.9104C182.108 18.1221 182.081 18.2183 182.016 18.2875C181.751 18.2798 181.576 18.2798 181.311 18.2798C180.988 18.2798 180.661 18.2798 180.339 18.2875V18.2298V18.2221Z" fill="#3B3D47"></path><path d="M183.09 18.2224C183.314 18.1955 183.39 18.0338 183.489 17.7221C183.762 16.8831 184.312 15.1051 184.312 15.1051L184.396 15.082C184.597 15.9249 184.817 16.7869 185.026 17.5989C185.136 18.0261 185.204 18.1801 185.451 18.2186V18.2763C185.349 18.2724 185.166 18.2609 184.977 18.2609C184.753 18.2609 184.669 18.2686 184.521 18.2763V18.2186C184.794 18.1916 184.802 18.08 184.726 17.7567C184.662 17.495 184.605 17.2449 184.551 17.0294H183.849C183.849 17.0294 183.743 17.4027 183.682 17.6105C183.549 18.0762 183.584 18.2032 183.887 18.2186V18.2763C183.808 18.2724 183.682 18.2609 183.477 18.2609C183.333 18.2609 183.162 18.2686 183.086 18.2763V18.2186L183.09 18.2224ZM184.529 16.9255C184.434 16.5252 184.331 16.1096 184.233 15.7209L183.883 16.9255H184.529Z" fill="#3B3D47"></path><path d="M186.408 18.2221C186.666 18.2029 186.749 18.1298 186.749 17.6371V15.7706C186.749 15.2934 186.685 15.2049 186.408 15.1857V15.1279C186.582 15.1356 186.749 15.1433 186.92 15.1433C187.11 15.1433 187.22 15.1395 187.402 15.1279V15.1857C187.132 15.2087 187.06 15.2934 187.06 15.7706V17.591C187.06 18.099 187.117 18.1567 187.482 18.1567C187.846 18.1567 188.043 17.9219 188.115 17.3985H188.172L188.15 17.9065C188.134 18.1451 188.104 18.2298 188.051 18.2837C187.744 18.276 187.626 18.276 187.273 18.276C186.84 18.276 186.65 18.276 186.4 18.2837V18.226L186.408 18.2221Z" fill="#3B3D47"></path><path d="M190.31 18.2221C190.568 18.2029 190.651 18.1298 190.651 17.6371V15.7706C190.651 15.2934 190.59 15.2049 190.31 15.1857V15.1279C190.488 15.1318 190.928 15.1356 191.209 15.1356C191.471 15.1356 191.744 15.1318 191.915 15.1279C191.964 15.2203 191.968 15.3781 191.964 15.5436L191.949 15.9053H191.9C191.809 15.3127 191.68 15.228 190.97 15.2357C190.966 15.2934 190.966 15.5128 190.966 15.6667V16.6058C191.615 16.6058 191.725 16.5634 191.775 16.2094H191.824V17.1676H191.775C191.74 16.7366 191.608 16.702 190.966 16.702V17.6102C190.966 18.1144 191.065 18.1605 191.406 18.1605C191.824 18.1605 191.983 17.9335 192.052 17.4024H192.109L192.086 17.9104C192.078 18.1221 192.052 18.2183 191.987 18.2875C191.721 18.2798 191.547 18.2798 191.281 18.2798C190.959 18.2798 190.632 18.2798 190.31 18.2875V18.2298V18.2221Z" fill="#3B3D47"></path><path d="M193.224 18.1722C193.167 18.0875 193.148 17.9336 193.156 17.7412L193.175 17.264H193.243C193.277 17.9182 193.486 18.2299 193.839 18.2299C194.131 18.2299 194.359 18.0067 194.359 17.541C194.359 17.2101 194.165 16.9599 193.839 16.8483C193.513 16.7367 193.194 16.4981 193.194 15.9401C193.194 15.4128 193.494 15.0703 193.949 15.0703C194.143 15.0703 194.325 15.1049 194.446 15.1896C194.518 15.3089 194.503 15.5206 194.503 15.5976L194.496 16.0055H194.427C194.401 15.5321 194.26 15.1665 193.915 15.1665C193.63 15.1665 193.448 15.4744 193.448 15.8285C193.448 16.1825 193.646 16.398 193.934 16.5096C194.374 16.6674 194.602 16.9176 194.602 17.391C194.602 17.9721 194.283 18.3377 193.801 18.3377C193.573 18.3377 193.3 18.2569 193.224 18.176V18.1722Z" fill="#3B3D47"></path><path d="M196.021 18.2219C196.257 18.2027 196.367 18.1565 196.367 17.6639V15.9552C196.367 15.6858 196.363 15.2432 196.363 15.2432C195.817 15.2432 195.722 15.3741 195.627 15.9744L195.57 15.9667V15.4241C195.57 15.2817 195.589 15.1893 195.627 15.1162C195.676 15.1508 195.801 15.1508 195.877 15.1508H197.179C197.255 15.1508 197.369 15.1508 197.43 15.1162C197.471 15.1893 197.487 15.2855 197.487 15.4241V15.9667L197.43 15.9744C197.331 15.3702 197.24 15.2471 196.693 15.2432C196.693 15.2432 196.689 15.6858 196.689 15.9552V17.6678C196.689 18.1835 196.819 18.2065 197.031 18.2219V18.2797C196.891 18.272 196.689 18.2643 196.526 18.2643C196.363 18.2643 196.192 18.2681 196.029 18.2797V18.2219H196.021Z" fill="#3B3D47"></path><path d="M198.204 18.2224C198.428 18.1955 198.504 18.0338 198.603 17.7221C198.876 16.8831 199.426 15.1051 199.426 15.1051L199.51 15.082C199.711 15.9249 199.931 16.7869 200.14 17.5989C200.25 18.0261 200.318 18.1801 200.565 18.2186V18.2763C200.462 18.2724 200.28 18.2609 200.09 18.2609C199.866 18.2609 199.783 18.2686 199.635 18.2763V18.2186C199.908 18.1916 199.916 18.08 199.84 17.7567C199.775 17.495 199.718 17.2449 199.665 17.0294H198.963C198.963 17.0294 198.857 17.4027 198.796 17.6105C198.663 18.0762 198.697 18.2032 199.001 18.2186V18.2763C198.921 18.2724 198.796 18.2609 198.591 18.2609C198.447 18.2609 198.276 18.2686 198.2 18.2763V18.2186L198.204 18.2224ZM199.642 16.9255C199.548 16.5252 199.445 16.1096 199.346 15.7209L198.997 16.9255H199.642Z" fill="#3B3D47"></path><path d="M201.745 18.2219C201.98 18.2027 202.091 18.1565 202.091 17.6639V15.9552C202.091 15.6858 202.087 15.2432 202.087 15.2432C201.54 15.2432 201.445 15.3741 201.35 15.9744L201.293 15.9667V15.4241C201.293 15.2817 201.312 15.1893 201.35 15.1162C201.4 15.1508 201.525 15.1508 201.601 15.1508H202.903C202.979 15.1508 203.093 15.1508 203.153 15.1162C203.195 15.1893 203.21 15.2855 203.21 15.4241V15.9667L203.153 15.9744C203.055 15.3702 202.963 15.2471 202.417 15.2432C202.417 15.2432 202.413 15.6858 202.413 15.9552V17.6678C202.413 18.1835 202.542 18.2065 202.755 18.2219V18.2797C202.614 18.272 202.413 18.2643 202.25 18.2643C202.087 18.2643 201.916 18.2681 201.753 18.2797V18.2219H201.745Z" fill="#3B3D47"></path><path d="M204.182 18.2221C204.44 18.2029 204.524 18.1298 204.524 17.6371V15.7706C204.524 15.2934 204.459 15.2049 204.182 15.1857V15.1279C204.361 15.1318 204.801 15.1356 205.082 15.1356C205.344 15.1356 205.617 15.1318 205.788 15.1279C205.837 15.2203 205.841 15.3781 205.837 15.5436L205.822 15.9053H205.772C205.681 15.3127 205.552 15.228 204.843 15.2357C204.839 15.2934 204.839 15.5128 204.839 15.6667V16.6058C205.488 16.6058 205.598 16.5634 205.647 16.2094H205.697V17.1676H205.647C205.613 16.7366 205.48 16.702 204.839 16.702V17.6102C204.839 18.1144 204.937 18.1605 205.279 18.1605C205.697 18.1605 205.856 17.9335 205.924 17.4024H205.981L205.958 17.9104C205.951 18.1221 205.924 18.2183 205.86 18.2875C205.594 18.2798 205.419 18.2798 205.154 18.2798C204.831 18.2798 204.505 18.2798 204.182 18.2875V18.2298V18.2221Z" fill="#3B3D47"></path><path d="M124.496 18.2841V15.0898H124.712V18.2841H124.496Z" fill="#3B3D47"></path></g><defs><clipPath id="clip0_126_608"><rect width="206" height="19" fill="white"></rect></clipPath></defs></svg> 