<?xml version="1.0" encoding="UTF-8"?> <svg xmlns="http://www.w3.org/2000/svg" width="150" height="43" viewBox="0 0 150 43" fill="none"><g clip-path="url(#clip0_126_698)"><path d="M1.64406 40.798C2.02346 40.6647 2.38577 40.5314 2.73099 40.3981V36.023H2.26614C1.91409 36.0298 1.5757 36.0469 1.25441 36.0743C1.26124 35.8419 1.27491 35.6846 1.29542 35.5992L1.30568 33.4082C1.27833 33.1963 1.26124 32.9981 1.25441 32.8067C1.4424 32.8135 1.59279 32.8272 1.69875 32.8477L3.81792 32.8579C3.87603 32.8511 4.07428 32.834 4.4195 32.8067L4.38874 33.1006C4.37506 33.1519 4.36823 33.1963 4.36823 33.2373L4.35797 35.4317L4.4195 36.0743C4.29303 36.0538 4.1734 36.0435 4.0606 36.0435C3.96832 36.0298 3.6607 36.023 3.1309 36.023V37.9098H3.60601C3.84527 37.9029 4.11529 37.8858 4.41608 37.8551V38.3404C4.33063 38.3097 4.25885 38.2994 4.19391 38.2994C4.08111 38.2857 3.72564 38.2789 3.1309 38.2789V40.2306C3.61626 40.046 4.00592 39.8991 4.30328 39.7863C4.52887 39.6803 4.72712 39.588 4.8946 39.5026C4.8946 39.6974 4.90486 39.882 4.92536 40.0494L3.95465 40.3776L2.64896 40.8732L1.38429 41.3791C1.10401 41.4919 0.88526 41.5978 0.731449 41.7038C0.704105 41.6696 0.687015 41.6354 0.680179 41.6081C0.639163 41.4953 0.581056 41.3654 0.512696 41.2184C0.50586 41.1911 0.499024 41.1671 0.492188 41.1466C0.645999 41.109 0.775883 41.0817 0.881842 41.0612C1.00831 41.027 1.13478 40.986 1.26124 40.945V38.0055C1.25441 37.7389 1.23732 37.5269 1.20997 37.3731H1.80129C1.72609 37.4928 1.68166 37.6192 1.67482 37.7525C1.66115 37.8858 1.65432 37.9679 1.65432 37.9952V40.8014L1.64406 40.798ZM3.95123 35.6402V33.2373H1.69533V35.6402H3.95123ZM4.50837 41.1671C4.42975 41.068 4.37164 40.9997 4.32721 40.9552C4.77839 40.8937 5.29793 40.7296 5.88925 40.4699C6.4293 40.2033 6.942 39.8991 7.42736 39.5538C7.28722 39.2291 7.17101 38.9318 7.07872 38.6549C6.98643 38.3541 6.88389 37.961 6.7711 37.4757L5.36971 37.8448C5.33553 37.8653 5.30477 37.8756 5.27742 37.8756C5.07918 37.9337 4.8946 37.9918 4.72028 38.0533C4.66901 37.8858 4.62458 37.7218 4.58356 37.568C4.85017 37.5338 5.06892 37.4962 5.2364 37.4517L6.70274 37.0826C6.57627 36.1256 6.50449 35.5103 6.48057 35.2369L5.40389 35.4351C5.20564 35.4625 5.03132 35.5103 4.87751 35.5718C4.85017 35.4112 4.82624 35.254 4.80232 35.0967C4.95613 35.0899 5.15437 35.0728 5.39363 35.0455L6.47031 34.878L6.39511 33.7705L6.38486 32.728C6.37119 32.5469 6.35068 32.335 6.32334 32.0957L7.09239 32.2119C6.94542 32.3589 6.85997 32.5093 6.83946 32.6665C6.81211 32.8613 6.79844 33.0869 6.79844 33.3399C6.80528 33.7124 6.8292 34.2046 6.87364 34.813L8.96205 34.4849C9.13637 34.4507 9.3312 34.3995 9.54312 34.3277L9.63882 34.7925C9.37221 34.7994 9.19448 34.813 9.11244 34.8335L6.89756 35.1822L6.97276 36.0025L7.10948 36.9937L9.52261 36.3956C9.71402 36.3238 9.87125 36.2554 9.99771 36.1939C10.0251 36.3546 10.0592 36.5152 10.1037 36.669C10.0182 36.6964 9.94302 36.71 9.87125 36.71L7.19493 37.3629C7.28722 37.8004 7.36583 38.1422 7.43761 38.3951C7.53674 38.6891 7.64953 38.9762 7.776 39.2599C7.98108 39.1061 8.26136 38.8497 8.62025 38.4908C8.78773 38.3097 8.9894 38.0465 9.22182 37.7115C9.36196 37.8517 9.55337 38.0055 9.79263 38.1764C9.55337 38.2276 9.33803 38.3575 9.15004 38.566C8.89027 38.8258 8.4972 39.1881 7.97082 39.653C8.05627 39.8717 8.16223 40.0768 8.29554 40.275C8.54847 40.6681 8.8014 40.9791 9.05434 41.2116C9.24917 41.3722 9.39272 41.4543 9.47475 41.4543C9.60122 41.4543 9.69009 41.3483 9.73794 41.1398C9.77896 40.9621 9.79947 40.7672 9.79947 40.5485L9.78921 40.2443C9.94986 40.3502 10.1276 40.4391 10.3156 40.5075C10.2404 40.9552 10.1754 41.2594 10.1276 41.4132C10.0558 41.6286 9.9567 41.7858 9.83365 41.8747C9.74136 41.9328 9.65933 41.9601 9.59097 41.9601C9.26626 41.9533 8.88344 41.6935 8.44251 41.1808C8.21009 40.9074 7.99475 40.6066 7.79992 40.2853C7.74182 40.1862 7.68371 40.07 7.61877 39.9366C6.72666 40.528 5.76278 41.0338 4.73054 41.4543C4.69294 41.403 4.66218 41.3585 4.63483 41.3175C4.58698 41.2628 4.54596 41.2116 4.51862 41.1603L4.50837 41.1671ZM8.9894 33.9141C8.9894 33.9141 8.96547 33.9346 8.95522 33.9551C8.54847 33.5176 8.0802 33.1109 7.55383 32.7315C7.66662 32.6255 7.76574 32.5093 7.85119 32.3828L9.25258 33.586C9.20473 33.6338 9.16371 33.6817 9.13637 33.7227C9.04408 33.8047 8.99623 33.8697 8.9894 33.9141Z" fill="#3B3D47"></path><path d="M21.3389 37.0343L20.3682 38.1212C20.228 38.2613 20.0811 38.3878 19.9375 38.5006L19.7051 38.3023C19.6538 38.2511 19.5786 38.1964 19.4727 38.1314C19.7119 38.0186 19.999 37.817 20.3374 37.5196C20.604 37.2735 20.8364 37.024 21.0347 36.7711C21.2603 36.4703 21.5303 36.0875 21.8448 35.6226C22.0293 35.3697 22.1524 35.1714 22.2242 35.021C22.2925 34.8809 22.3301 34.7681 22.3404 34.6827L22.5079 34.7681C22.6856 34.8809 22.8052 34.9527 22.8668 34.98C22.8941 35.0005 22.9112 35.0108 22.918 35.0108C22.8052 35.0826 22.7232 35.1509 22.6753 35.2125C22.6343 35.2398 22.4839 35.438 22.2242 35.8038C22.125 35.9302 22.0498 36.0396 22.002 36.1285C21.855 36.3096 21.773 36.4464 21.7525 36.5318V41.2965C21.773 41.6964 21.7935 41.9186 21.814 41.9596H21.2876C21.3013 41.9255 21.3081 41.8844 21.3081 41.8434C21.3286 41.7101 21.3389 41.5153 21.3389 41.2624V37.0343ZM19.8726 35.1783C19.7666 35.0791 19.6743 35.0074 19.5889 34.9664C19.9409 34.7408 20.2144 34.5357 20.4126 34.3443C20.6143 34.1494 20.898 33.8282 21.2569 33.3838C21.5098 33.0659 21.6944 32.8198 21.8037 32.6455C21.896 32.4849 21.9507 32.3413 21.9712 32.2148C22.043 32.2354 22.0977 32.2559 22.1387 32.2798C22.1831 32.3003 22.3404 32.3652 22.6138 32.4678C22.419 32.6079 22.2789 32.731 22.1934 32.8369C21.9678 33.1309 21.7525 33.4077 21.5371 33.6709L20.8296 34.5049C20.5972 34.751 20.3306 35.021 20.0298 35.3184C19.9717 35.2671 19.9204 35.2227 19.8726 35.1817V35.1783ZM27.3478 40.924C27.3409 41.4093 27.0743 41.7067 26.548 41.8195C26.2882 41.8708 25.9566 41.9084 25.5567 41.9357C25.5226 41.7238 25.4713 41.5461 25.4063 41.3991C25.6388 41.4333 25.8507 41.4503 26.0387 41.4503C26.3702 41.4503 26.6197 41.3991 26.7872 41.2931C26.8932 41.2248 26.9445 41.0607 26.9445 40.8078V36.4874H23.1265C23.0855 36.4942 22.9283 36.5113 22.6514 36.5386V36.0533C22.7095 36.067 24.6134 36.084 28.3664 36.1046C28.6398 36.0977 28.8722 36.0806 29.0636 36.0533V36.5386C29.0431 36.525 29.0226 36.5181 28.9987 36.5181C28.9303 36.4976 28.3766 36.4874 27.3444 36.4874V40.924H27.3478ZM23.4991 32.9429C23.5538 32.9566 24.88 32.9736 27.4742 32.9976C27.6315 32.9907 27.8434 32.9771 28.1168 32.9566C28.1305 32.9497 28.1476 32.9463 28.1715 32.9463V33.4419L28.151 33.4317C28.004 33.4043 27.8673 33.3906 27.7409 33.3906L24.0391 33.3804C23.7384 33.4009 23.5811 33.4146 23.5743 33.4214C23.5469 33.4351 23.523 33.4419 23.4991 33.4419V32.9463V32.9429Z" fill="#3B3D47"></path><path d="M42.7491 34.9258H41.5152L39.7959 34.9463C39.7173 34.96 39.6695 34.9668 39.6489 34.9668C39.6216 34.9805 39.5977 34.9874 39.5772 34.9874V34.4917L42.7491 34.5464V33.6817H39.3106C38.8799 33.7022 38.668 33.7158 38.668 33.7227C38.6406 33.7295 38.6167 33.7329 38.5928 33.7329V33.2476L42.7457 33.3023V33.0391C42.7457 32.8067 42.7252 32.5024 42.6842 32.123H43.296C43.2242 32.2222 43.1866 32.3281 43.1798 32.4375C43.1593 32.5571 43.149 32.6802 43.149 32.8067V33.3023H46.5226C46.6559 33.3023 46.8302 33.292 47.049 33.2681C47.1037 33.2612 47.1549 33.2544 47.1959 33.2476V33.7329C46.9635 33.7056 46.8336 33.6919 46.8063 33.6919L43.149 33.6817V34.5464H45.4493C45.8356 34.5122 46.0509 34.4917 46.0919 34.4917V34.9874C45.9791 34.9532 45.8458 34.9361 45.6886 34.9361L43.149 34.9258V35.835H46.902C47.0832 35.8282 47.3122 35.8111 47.589 35.7838V36.2657C47.3566 36.2383 47.2199 36.2247 47.1789 36.2247L38.7739 36.2144C38.627 36.2213 38.4492 36.2383 38.2339 36.2657V35.7838C38.3057 35.7974 38.3535 35.8043 38.3843 35.8043C38.4834 35.8111 38.5518 35.8179 38.5962 35.8248L42.7491 35.835V34.9258ZM42.9166 38.8258C42.7901 39.5231 42.5679 40.0597 42.2432 40.4391C41.7203 41.0919 40.5445 41.6217 38.7124 42.0319C38.6065 41.8507 38.4663 41.6833 38.2886 41.5363C38.8867 41.5089 39.3858 41.4406 39.7857 41.3346C40.377 41.1671 40.8931 40.9518 41.334 40.692C41.7271 40.4596 42.0176 40.1417 42.209 39.7316C42.4175 39.2667 42.5235 38.8224 42.5235 38.3917C42.5167 38.3063 42.5133 38.2105 42.5133 38.0943C42.6944 38.1353 42.8927 38.1627 43.1046 38.1695C43.0772 38.2242 43.043 38.2994 42.9986 38.3917C42.9713 38.484 42.9508 38.5797 42.9473 38.6857C42.9337 38.7267 42.9234 38.7745 42.9132 38.8224L42.9166 38.8258ZM45.8151 37.4757C45.8014 37.568 45.7946 37.9986 45.7946 38.7608C45.8014 39.2872 45.8151 39.6632 45.8356 39.8785C45.8356 39.9093 45.8356 39.9332 45.8458 39.9606H45.34L45.381 39.6119L45.3912 37.4723H40.2266L40.2368 39.6564C40.2437 39.8615 40.2574 39.9879 40.2779 40.0358V40.0665H39.772C39.7788 39.9982 39.7925 39.8785 39.813 39.7076L39.8233 37.7457C39.7959 37.5064 39.7788 37.2706 39.772 37.0382C40.0044 37.045 40.1719 37.0587 40.2779 37.0792L44.8854 37.0894C45.152 37.0894 45.3605 37.0792 45.5074 37.0587C45.5997 37.0518 45.7125 37.045 45.8458 37.0382C45.8253 37.1783 45.8151 37.3219 45.8151 37.4688V37.4757ZM43.3062 40.3878C43.4122 40.2545 43.5045 40.111 43.5899 39.9537C43.8087 40.0529 43.9386 40.111 43.9796 40.1349L45.7296 41.0407C46.0407 41.2184 46.3756 41.4201 46.7345 41.6525C46.5773 41.8576 46.5021 41.9635 46.5021 41.9704C46.4884 42.0148 46.4611 42.0661 46.4166 42.1276C46.2116 41.8952 45.7091 41.5465 44.9093 41.0851C44.1983 40.692 43.6651 40.4596 43.3062 40.3878Z" fill="#3B3D47"></path><path d="M58.6704 35.1578L57.8706 36.2105C57.6963 36.4361 57.5117 36.6549 57.3237 36.8634C57.1563 36.7301 56.9648 36.6207 56.7529 36.5386C57.2451 36.2515 57.7442 35.7354 58.25 34.9971C58.6158 34.4639 58.9405 33.9444 59.2207 33.4385C59.4942 32.9531 59.6856 32.5532 59.8018 32.2354C59.8702 32.2764 59.9488 32.3242 60.0342 32.3721C60.1812 32.4849 60.3214 32.5737 60.4581 32.6353C60.253 32.7002 60.1163 32.7857 60.0479 32.8882C59.9625 33.001 59.7847 33.2881 59.5079 33.753C59.3335 34.0127 59.19 34.2588 59.0772 34.4912V40.818C59.0704 41.0846 59.0874 41.4845 59.1319 42.0212H58.626C58.6602 41.8161 58.6773 41.5666 58.6773 41.2726V35.1578H58.6704ZM63.131 33.9033C62.8233 33.9717 62.5089 34.0298 62.1944 34.0743C62.003 34.1153 61.7808 34.1529 61.5279 34.1802L60.4854 34.3067C60.4581 34.2076 60.4341 34.1289 60.4102 34.064C60.376 33.9922 60.3248 33.8931 60.2598 33.77C60.4581 33.7974 60.6085 33.8111 60.7144 33.8111C61.022 33.8042 61.6099 33.7393 62.4747 33.6128C62.7892 33.5581 63.1481 33.4863 63.548 33.4009C63.9547 33.3154 64.317 33.23 64.6349 33.148C65.0143 33.042 65.3664 32.9224 65.6808 32.7891C65.8278 33.0283 65.9782 33.2129 66.1252 33.3496C65.8996 33.3565 65.6911 33.3804 65.5031 33.4214L64.0778 33.7256C63.9445 33.7666 63.7599 33.8076 63.5309 33.8521V36.9727H66.0978C66.4054 36.9659 66.6447 36.9488 66.8156 36.9215V37.4171L66.6344 37.3863C66.5627 37.3726 66.5046 37.3658 66.4533 37.3658L63.5309 37.3556V40.8351H65.715C66.0021 40.8283 66.2482 40.8112 66.443 40.7838V41.2794C66.3097 41.2521 66.1867 41.235 66.0739 41.2282L60.8716 41.2179C60.5264 41.2179 60.2803 41.2384 60.1334 41.2794V40.7838C60.2325 40.7975 60.2906 40.8043 60.3145 40.8043C60.4957 40.8248 60.6837 40.8351 60.8716 40.8351H63.1275V37.3556L60.2701 37.3658C59.983 37.4 59.8292 37.4171 59.8086 37.4171V36.9215C59.9488 36.942 60.0616 36.9556 60.147 36.9625L63.131 36.9727V33.9068V33.9033Z" fill="#3B3D47"></path><path d="M84.4834 38.8907C84.4492 38.9249 84.4185 38.9659 84.3877 39.0069C84.1416 38.8805 83.9468 38.8053 83.7964 38.7848C84.1211 38.5968 84.4868 38.1695 84.8936 37.5099C85.4644 36.6177 85.8643 35.8213 86.0967 35.1172H84.9243C84.7329 35.1172 84.5552 35.1275 84.3843 35.1514C84.3433 35.1514 84.3023 35.1617 84.2578 35.1822V34.6866C84.2578 34.6866 84.2886 34.69 84.3091 34.6968L86.148 34.7378V32.9776C86.1411 32.6836 86.1241 32.4512 86.0967 32.2803H86.7632C86.6641 32.4136 86.606 32.5469 86.5821 32.6802C86.5616 32.7725 86.5513 32.8682 86.5513 32.9741V34.7344H87.2691C87.6212 34.7276 87.8638 34.7105 87.9971 34.6831V35.1788C87.9151 35.1514 87.8194 35.1343 87.7134 35.1343C87.5938 35.1207 87.2076 35.1138 86.5513 35.1138V35.5992L88.168 37.127C88.1202 37.1783 88.0792 37.233 88.0518 37.2945C88.0176 37.3355 87.9869 37.3834 87.9664 37.4312C87.9083 37.503 87.8775 37.5577 87.8707 37.5987C87.751 37.4244 87.5972 37.233 87.4058 37.0211C87.1973 36.7886 86.9102 36.5015 86.5513 36.1563V41.1432C86.565 41.3825 86.5821 41.6149 86.6026 41.8473H86.0967C86.1104 41.7619 86.1172 41.7106 86.1172 41.6901C86.1377 41.4782 86.148 41.297 86.148 41.1432V36.0811C86.1206 36.1597 85.8916 36.5767 85.461 37.3355C85.3687 37.4757 85.2866 37.6124 85.2183 37.7457C84.7876 38.378 84.5449 38.7574 84.4766 38.8839L84.4834 38.8907ZM89.3097 34.7242L88.6773 35.7154C88.5577 35.8863 88.4415 36.0435 88.3287 36.1905C88.2227 36.1221 88.127 36.0743 88.0416 36.0538C87.9356 36.0196 87.8297 35.9786 87.7271 35.9376C87.9322 35.8384 88.1578 35.6299 88.4141 35.3155C88.5543 35.1343 88.6978 34.9122 88.8482 34.6524C89.002 34.3653 89.1866 34.0064 89.3951 33.5757C89.6617 33.0049 89.8121 32.5503 89.8395 32.2051C90.0377 32.3315 90.2872 32.4512 90.588 32.564C90.4205 32.6836 90.3146 32.7759 90.2735 32.8374C90.2018 32.916 90.1061 33.1006 89.9762 33.398C89.8634 33.6099 89.754 33.8218 89.6515 34.0406C89.6002 34.1534 89.5558 34.2559 89.5147 34.3448H92.6935C92.9396 34.3174 93.1823 34.3003 93.4215 34.2935L93.36 34.9566C93.3463 35.2232 93.3293 35.6094 93.3087 36.1153L93.2028 40.111C93.1481 40.8698 92.9293 41.3449 92.5465 41.5363C92.379 41.6149 92.1774 41.673 91.945 41.714C91.6578 41.7619 91.2887 41.8029 90.8375 41.8302C90.7965 41.8302 90.7521 41.8337 90.7111 41.8405C90.6905 41.7072 90.6358 41.5124 90.5538 41.2594C90.7862 41.3107 91.0187 41.3346 91.2511 41.3346C91.7228 41.3278 92.0748 41.2731 92.3073 41.1671C92.5807 41.0202 92.7379 40.5929 92.7824 39.8922C92.796 39.7521 92.8029 39.5607 92.8029 39.3214L92.9293 34.7242H89.3165H89.3097ZM88.0006 39.048C88.2193 38.9147 88.4483 38.6549 88.6876 38.2687C88.7594 38.1627 88.9644 37.7628 89.3097 37.0655C89.6275 36.44 89.8395 35.9273 89.942 35.524C90.1163 35.6299 90.3248 35.7256 90.5641 35.8111C90.4171 35.9444 90.3111 36.064 90.2496 36.1666C90.1676 36.3272 90.0479 36.5528 89.901 36.8297L89.1524 38.2311C88.9849 38.5421 88.8311 38.795 88.6978 38.9899C90.1847 38.6959 90.9503 38.5455 90.9982 38.5455L91.3365 38.4601C91.0118 37.9679 90.7247 37.6329 90.4684 37.4586C90.6324 37.3765 90.7794 37.2774 90.9127 37.1646C91.152 37.4586 91.3776 37.7662 91.5895 38.0909C91.921 38.6105 92.1295 38.9762 92.2252 39.1881C92.1193 39.2291 92.0441 39.2667 92.0031 39.2941L91.7809 39.4513C91.7535 39.3522 91.7228 39.2496 91.6989 39.1471C91.6408 39.0343 91.5929 38.9249 91.5519 38.819C91.5006 38.8326 91.3058 38.8736 90.9606 38.9352L89.7984 39.1881L88.7115 39.4513C88.5167 39.506 88.3526 39.5675 88.2261 39.629C88.2022 39.4889 88.1715 39.3761 88.1304 39.2906L88.004 39.0377L88.0006 39.048Z" fill="#3B3D47"></path><path d="M104.198 33.9888L103.545 34.9903C103.34 35.2877 103.152 35.5372 102.975 35.7491C102.787 35.6226 102.619 35.5269 102.469 35.4654C102.824 35.2193 103.231 34.7373 103.679 34.023C104.024 33.459 104.284 32.8848 104.458 32.2935C104.632 32.3789 104.858 32.4712 105.131 32.5772C104.964 32.6558 104.841 32.7481 104.772 32.8609C104.69 32.96 104.557 33.2095 104.383 33.6094H106.492C106.837 33.6094 107.066 33.5889 107.179 33.5479V34.0537C107.087 34.0264 107.001 34.0127 106.916 34.0127C106.81 33.9991 106.29 33.9922 105.357 33.9922L105.798 34.6451C105.989 34.9048 106.129 35.1202 106.218 35.2876L105.955 35.3936C105.89 35.421 105.829 35.462 105.764 35.5098C105.692 35.3902 105.634 35.274 105.583 35.1646C105.442 34.9185 105.193 34.5288 104.834 33.9922H104.191L104.198 33.9888ZM105.063 39.9669C105.487 39.8473 105.812 39.7516 106.044 39.6832C106.253 39.6046 106.475 39.5226 106.707 39.4303C106.687 39.4884 106.673 39.5465 106.666 39.6115C106.646 39.6456 106.635 39.7003 106.635 39.7687C106.628 39.8268 106.622 39.8849 106.615 39.9464C104.844 40.3976 103.631 40.7702 102.978 41.0641C102.937 40.8864 102.872 40.6813 102.79 40.442C103.351 40.3839 103.969 40.2643 104.646 40.0729L104.667 36.9522H103.686C103.351 36.9727 103.166 36.9932 103.135 37.0172V36.5216C103.187 36.5284 103.221 36.5352 103.245 36.5421C103.351 36.5626 104.212 36.5728 105.836 36.5728C106.174 36.566 106.406 36.5489 106.533 36.5181V37.0138C106.447 36.9864 106.355 36.9693 106.249 36.9693C106.136 36.9556 105.743 36.9488 105.066 36.9488V39.9635L105.063 39.9669ZM107.702 38.7433C107.702 39.2628 107.65 39.714 107.545 40.0934C107.326 40.8112 106.806 41.4777 105.986 42.0861C105.859 41.9255 105.699 41.7853 105.511 41.6759C105.798 41.5563 106.044 41.4298 106.239 41.2965C106.683 40.9308 106.977 40.5241 107.124 40.0729C107.203 39.7789 107.254 39.5055 107.281 39.2526C107.295 39.0133 107.302 38.3229 107.302 37.1778C107.302 36.9932 107.281 36.6925 107.24 36.2686C107.38 36.2823 107.503 36.2891 107.609 36.2891C107.664 36.296 107.719 36.3028 107.767 36.3096L109.811 36.3199C110.064 36.2926 110.31 36.2755 110.549 36.2686C110.522 36.4327 110.501 36.5899 110.494 36.7437L110.484 40.6027C110.484 40.8761 110.559 41.0402 110.706 41.088C110.833 41.1154 111 41.1325 111.209 41.1325C111.533 41.1325 111.735 41.0368 111.82 40.8454C111.913 40.6198 111.957 40.3497 111.957 40.0319C111.957 39.9396 111.947 39.82 111.926 39.673C112.032 39.7379 112.159 39.7892 112.306 39.8302C112.361 39.8439 112.415 39.861 112.463 39.8815C112.429 40.09 112.388 40.2814 112.347 40.4523C112.313 40.6129 112.272 40.7599 112.231 40.8864C112.125 41.153 111.981 41.3341 111.786 41.423C111.639 41.4845 111.462 41.5187 111.25 41.5187C110.809 41.5187 110.522 41.4879 110.395 41.423C110.187 41.317 110.081 41.0607 110.081 40.6539V36.6993H107.698V38.7433H107.702ZM107.059 35.233C106.994 35.1988 106.933 35.1714 106.868 35.1509L106.656 35.045C107.175 34.6997 107.637 34.146 108.037 33.3804C108.197 33.107 108.324 32.8745 108.406 32.6831C108.488 32.502 108.573 32.3037 108.659 32.0918C108.806 32.167 109.011 32.2388 109.271 32.3037C109.076 32.4507 108.912 32.6524 108.785 32.9053C108.652 33.124 108.529 33.3394 108.416 33.5581H111.157C111.489 33.5513 111.721 33.5342 111.855 33.5069V33.9922C111.834 33.9785 111.814 33.9717 111.793 33.9717C111.715 33.9512 111.014 33.9409 109.684 33.9409C109.79 34.0811 109.876 34.1973 109.937 34.2896L110.368 34.9219C110.429 35.004 110.484 35.0894 110.525 35.1749C110.546 35.209 110.569 35.2466 110.6 35.2911C110.501 35.3321 110.368 35.4175 110.2 35.544C109.92 35.004 109.568 34.4673 109.144 33.9409H108.194C108.17 33.9546 108.16 33.9717 108.16 33.9922L107.169 35.3116C107.117 35.2842 107.08 35.2603 107.052 35.2364L107.059 35.233ZM107.975 38.1314C108.156 38.0187 108.252 37.964 108.259 37.964C108.29 37.9298 108.334 37.899 108.396 37.8785C108.611 38.0973 108.837 38.3536 109.069 38.6476C109.322 38.9449 109.544 39.2184 109.732 39.4713C109.527 39.5841 109.394 39.673 109.332 39.7345C109.079 39.3551 108.867 39.0646 108.7 38.8697C108.512 38.651 108.269 38.4083 107.972 38.1314H107.975Z" fill="#3B3D47"></path><path d="M125.855 37.4444L126.457 37.5299C126.358 37.67 126.286 37.8717 126.234 38.1314C126.18 38.4117 126.152 38.5792 126.152 38.6271H129.895C129.929 38.6202 130.158 38.6031 130.579 38.5758V39.0612C130.493 39.0406 130.411 39.027 130.326 39.0201L126.436 39.0099C126.781 39.5807 127.4 40.1105 128.292 40.6027C129.157 41.0812 130.001 41.3307 130.825 41.3512C130.678 41.5221 130.541 41.6999 130.415 41.8879C129.854 41.7033 129.362 41.5358 128.938 41.382C128.538 41.2043 128.159 41.0128 127.8 40.8009C127.01 40.3019 126.419 39.7448 126.016 39.1363C125.681 39.608 125.404 39.9498 125.195 40.1686C124.57 40.7873 123.814 41.3068 122.929 41.7272C122.557 41.9118 122.246 42.0485 121.993 42.1374C121.863 41.9391 121.716 41.7751 121.548 41.6418C122.246 41.529 122.963 41.2589 123.709 40.8317C124.314 40.4523 124.806 40.0387 125.185 39.5978C125.339 39.3927 125.469 39.1979 125.575 39.0065L121.853 39.0167C121.678 39.0236 121.565 39.0372 121.518 39.0577V38.5724C121.559 38.586 121.606 38.5929 121.654 38.5929C121.914 38.6134 122.109 38.6236 122.235 38.6236H125.725L125.831 38.0016C125.845 37.8033 125.855 37.6187 125.862 37.441L125.855 37.4444ZM123.548 35.7559C123.322 35.7559 123.138 35.7696 122.987 35.7901C122.929 35.7901 122.881 35.8004 122.84 35.8209V35.3252C122.875 35.3389 122.922 35.3458 122.987 35.3458C123.247 35.3663 123.435 35.3765 123.548 35.3765H125.899V34.2793H122.587C122.417 34.2793 122.249 34.2998 122.082 34.3443V33.8487C122.129 33.8623 122.181 33.8692 122.229 33.8692C122.495 33.8897 122.687 33.9034 122.799 33.9034H126.457C126.569 33.7837 126.921 33.3633 127.513 32.6387C127.687 32.3926 127.796 32.1978 127.838 32.0508C128.019 32.2046 128.231 32.3447 128.47 32.4712C128.251 32.5772 128.046 32.7241 127.858 32.9155C127.759 32.9839 127.667 33.083 127.574 33.2095C127.28 33.5274 127.079 33.7564 126.976 33.9068H129.4C129.745 33.8794 129.957 33.8623 130.042 33.8521V34.3477C129.875 34.3135 129.748 34.2964 129.663 34.2964L126.31 34.2862V35.3834H128.713C129.051 35.356 129.259 35.3389 129.345 35.3321V35.8277C129.232 35.7935 129.102 35.7764 128.955 35.7764L126.31 35.7628V36.9762L129.895 36.9659C129.981 36.9591 130.107 36.9454 130.275 36.9249V37.4205C130.155 37.3863 130.052 37.3692 129.967 37.3692L122.587 37.359C122.434 37.3521 122.293 37.359 122.167 37.3795C122.02 37.3863 121.921 37.4 121.87 37.4205V36.9249C121.914 36.9386 121.959 36.9454 122.01 36.9454C122.27 36.9659 122.461 36.9762 122.587 36.9762H125.899V35.7628H123.548V35.7559ZM125.298 33.3941C125.298 33.3941 125.322 33.4146 125.329 33.4351C125.168 33.5957 125.072 33.7085 125.045 33.77L124.529 33.2539C124.262 33.0215 123.965 32.7822 123.644 32.5293C123.763 32.437 123.876 32.3276 123.982 32.2012C124.194 32.3755 124.32 32.4849 124.361 32.5293C124.901 33.0215 125.216 33.3086 125.298 33.3941Z" fill="#3B3D47"></path><path d="M141.493 34.7134C141.677 33.835 141.78 33.3189 141.8 33.1616C141.848 32.854 141.882 32.5498 141.906 32.2559C142.111 32.314 142.316 32.3516 142.528 32.3721C142.416 32.5772 142.334 32.7857 142.286 32.9942C142.187 33.3736 142.053 33.9444 141.886 34.7134H143.438C143.643 34.6861 143.837 34.669 144.029 34.6621C143.902 35.315 143.817 35.814 143.776 36.1592C143.735 36.4258 143.66 36.7437 143.554 37.1095C143.455 37.4478 143.362 37.7418 143.28 37.9947C143.154 38.3023 143.014 38.6271 142.86 38.9654C143.14 39.1705 143.537 39.4816 144.053 39.902L144.306 40.1002C144.213 40.2096 144.114 40.3668 143.998 40.5753C143.906 40.4489 143.817 40.3326 143.725 40.2301C143.653 40.1583 143.301 39.861 142.668 39.3346C142.217 39.8917 141.838 40.3258 141.52 40.6437C141.182 40.965 140.771 41.2965 140.286 41.6349C140.19 41.4948 140.05 41.341 139.876 41.1735C140.327 41.0128 140.751 40.7599 141.154 40.4147C141.582 40.0284 141.968 39.5944 142.313 39.109C142.173 38.9757 141.999 38.8424 141.787 38.7091C141.383 38.4425 140.973 38.193 140.553 37.9605C140.672 37.6871 140.761 37.4513 140.826 37.253C140.98 36.7198 141.072 36.4395 141.093 36.4088C141.267 35.7696 141.376 35.3321 141.417 35.0997H140.437C140.153 35.0997 139.972 35.1202 139.89 35.1646V34.669C139.937 34.6827 139.972 34.6895 139.996 34.6895C140.115 34.71 140.313 34.7203 140.587 34.7203H141.503L141.493 34.7134ZM141.387 37.9811L142.115 38.4562L142.504 38.7296C142.754 38.2921 142.986 37.6974 143.198 36.9351C143.359 36.2344 143.461 35.6192 143.506 35.0894H141.831C141.746 35.4346 141.674 35.7217 141.609 35.9542C141.39 36.7335 141.209 37.3385 141.062 37.7691L141.387 37.9811ZM146.586 36.3131C146.586 36.2071 146.565 35.9473 146.524 35.5235C146.65 35.4244 146.78 35.315 146.914 35.1885C147.081 35.0279 147.242 34.857 147.389 34.6827C147.601 34.4571 147.768 34.2588 147.895 34.0913C148.014 33.9307 148.137 33.753 148.26 33.565H144.603C144.432 33.5786 144.265 33.5957 144.097 33.6162V33.1309C144.145 33.1377 144.234 33.1514 144.36 33.1719L148.411 33.1821C148.623 33.1548 148.824 33.1377 149.023 33.1309C148.756 33.5752 148.486 33.9683 148.209 34.3101C147.881 34.71 147.471 35.1646 146.989 35.6705V37.3145H148.339L149.361 37.294C149.361 37.294 149.382 37.2735 149.402 37.2735C149.416 37.2667 149.443 37.2633 149.484 37.2633V37.7486C149.392 37.7179 149.276 37.7042 149.129 37.7042L146.985 37.6939V41.0675C146.979 41.3922 146.876 41.6144 146.681 41.7409C146.521 41.8195 146.292 41.8776 145.994 41.922L145.406 42.0177C145.365 41.8468 145.29 41.6691 145.184 41.4811C145.423 41.5085 145.601 41.5221 145.711 41.5221C145.95 41.5221 146.155 41.5016 146.322 41.4606C146.421 41.4196 146.48 41.382 146.5 41.3546C146.558 41.3 146.586 41.1872 146.586 41.0197V37.6974H144.795C144.442 37.7042 144.213 37.7213 144.111 37.752V37.2667L144.374 37.3077L146.589 37.318V36.3131H146.586Z" fill="#3B3D47"></path><path d="M67.3421 8.79458V8.15199L36.9388 0L17.292 8.10414V8.66469L36.9388 3.72906L67.3421 8.79458Z" fill="#3B3D47"></path><path d="M35.5544 10.6299V17.213H24.8629V10.6299H24.8423H21.2773H21.2568V28.4583H21.2773H24.8423H24.8629V20.7712H35.5544V28.4583H39.0853H39.1194V10.6299H39.0853H35.5544Z" fill="#3B3D47"></path><path d="M89.1833 10.6299C84.2681 10.6299 80.269 14.629 80.269 19.5441C80.269 24.4592 84.2681 28.4583 89.1833 28.4583H98.0975V19.5441C98.0975 14.629 94.0984 10.6299 89.1833 10.6299ZM89.1833 24.9822C86.1856 24.9822 83.7452 22.5417 83.7452 19.5441C83.7452 16.5465 86.1856 14.106 89.1833 14.106C92.1809 14.106 94.6282 16.5465 94.6282 19.5441V24.9822H89.1833Z" fill="#3B3D47"></path><path d="M105.538 10.6299H101.662V28.4583H105.538V10.6299Z" fill="#3B3D47"></path><path d="M6.46007 14.1475H17.3738V10.6338H6.46007C2.89848 10.6304 0 13.5323 0 17.0939V18.4371L14.1096 23.1096C13.6516 24.2204 12.5647 24.8699 11.3513 24.8699H0.461433V28.4622H11.3513C14.9128 28.4622 17.8113 25.5637 17.8113 22.0021V20.6076L3.70172 15.9283C4.15974 14.8175 5.24667 14.1441 6.46007 14.1441V14.1475Z" fill="#3B3D47"></path><path d="M71.4196 18.0641L78.8127 10.6162H74.5265L67.3419 17.8522V10.6162H63.7803V28.4139H67.3419V22.1726L69.0919 20.4123L75.4699 28.4446H79.6331L75.986 23.8303L71.4196 18.0641Z" fill="#3B3D47"></path><path d="M51.4308 10.3398C46.4097 10.3398 42.3218 14.4244 42.3218 19.4489C42.3218 24.4734 46.4063 28.5545 51.4308 28.5545C56.4553 28.5545 60.5364 24.47 60.5364 19.4489C60.5364 14.4278 56.4519 10.3398 51.4308 10.3398ZM51.5094 24.969C48.464 24.969 45.9859 22.4909 45.9859 19.4455C45.9859 16.4 48.464 13.9219 51.5094 13.9219C54.5549 13.9219 57.033 16.4 57.033 19.4455C57.033 22.4909 54.5549 24.969 51.5094 24.969Z" fill="#3B3D47"></path><path d="M126.026 9.69727H123.206V11.2388H117.512V9.69727H114.712V11.2388H111.24V13.628H118.647V14.8585H114.125C113.15 14.8585 112.361 15.648 112.361 16.6222V28.4588H128.354V16.6222C128.354 15.648 127.564 14.8585 126.59 14.8585H122.068V13.628H129.478V11.2388H126.026V9.69727ZM125.992 25.9431H114.743V24.258H125.992V25.9431ZM125.992 22.4294H114.743V20.8264H125.992V22.4294ZM125.992 17.3707V18.9943H114.743V17.3707H125.992Z" fill="#3B3D47"></path><path d="M150 17.234H146.086V12.4761H148.896V10.0459H132.934V12.4761H135.736V17.234H131.758V19.6984H135.73C135.644 24.9622 132.937 28.4588 132.937 28.4588H136.112C136.112 28.4588 138.259 25.0066 138.324 19.6984H143.482V28.4588H146.079V19.6984H149.993V17.234H150ZM138.334 17.234V12.4761H143.488V17.234H138.334Z" fill="#3B3D47"></path></g><defs><clipPath id="clip0_126_698"><rect width="150" height="42.1374" fill="white"></rect></clipPath></defs></svg> 