<?xml version="1.0" encoding="UTF-8"?> <svg xmlns="http://www.w3.org/2000/svg" width="150" height="34" viewBox="0 0 150 34" fill="none"><g clip-path="url(#clip0_126_603)"><path d="M6.67951 13.0377L6.72187 4.34481C5.0754 5.09481 3.92657 6.7501 3.91598 8.67893C3.90716 10.606 5.0401 12.2736 6.67951 13.0395V13.0377ZM8.74245 0.000101333C3.93892 -0.0228398 0.0230425 3.85245 0.000101287 8.65951C-0.0228399 13.4648 3.85422 17.3789 8.65951 17.4019C13.4648 17.4248 17.3789 13.5478 17.4019 8.74246C17.4266 3.93893 13.5495 0.0230425 8.74245 0.000101333ZM8.66304 16.5319C4.33775 16.5107 0.848925 12.9866 0.870101 8.66304C0.891278 4.33951 4.41363 0.848925 8.73892 0.870101C13.0642 0.893043 16.553 4.4154 16.5319 8.73893C16.5107 13.0642 12.9883 16.553 8.66304 16.5319ZM8.7354 1.5654C4.79481 1.54598 1.58481 4.72598 1.56716 8.66481C1.54951 12.6036 4.72598 15.8154 8.66657 15.833C12.6072 15.8525 15.8172 12.6742 15.8366 8.73363C15.856 4.79481 12.6777 1.58304 8.73716 1.5654H8.7354ZM7.97481 14.8342C4.89187 14.4742 2.50775 11.8466 2.52363 8.6701C2.53951 5.49363 4.94834 2.89069 8.03481 2.55893L7.97481 14.8342ZM9.36716 14.8413L9.42716 2.56598C12.2807 2.89951 14.536 5.17775 14.843 8.03304L13.4401 8.02598C13.2107 6.39893 12.1625 5.03481 10.7242 4.36245L10.7066 8.05599L12.4466 8.06481L12.4413 9.37069L10.7013 9.36187L10.6836 13.0572C12.1289 12.3989 13.1895 11.0436 13.4348 9.4201L14.8377 9.42716C14.5042 12.2807 12.226 14.536 9.37069 14.843L9.36716 14.8413Z" fill="#3B3D47"></path><path d="M56.4159 15.6426H56.0365C55.2 15.6426 54.8188 15.2244 54.8188 14.1021V6.21735L54.6671 6.22618C53.7159 6.28441 52.6694 6.32147 51.8894 6.32147H51.5083V6.51206H51.8894C52.7259 6.51206 53.1071 6.93029 53.1071 8.05265V13.9115C51.9283 14.9579 51.1288 15.2632 50.1583 15.2632C49.1118 15.2632 48.39 14.4832 48.39 12.6374V6.21735L48.2383 6.22618C47.2871 6.28441 46.2406 6.32147 45.4606 6.32147H45.0812V6.51206H45.4606C46.2988 6.51206 46.6783 6.93029 46.6783 8.05265V12.8844C46.6783 15.0338 48.0088 16.0238 49.703 16.0238C50.8253 16.0238 51.6247 15.6991 53.1088 14.2168V15.8332L53.2606 15.9285C54.2118 15.8721 55.2583 15.8332 56.0382 15.8332H56.4177V15.6426H56.4159ZM110.725 4.33088C111.401 4.33088 111.951 3.78206 111.951 3.10618C111.951 2.43029 111.402 1.87971 110.725 1.87971C110.047 1.87971 109.498 2.42853 109.498 3.10618C109.498 3.78382 110.047 4.33088 110.725 4.33088ZM40.2688 6.13088C37.3588 6.13088 35.2271 8.26088 35.2271 11.0756C35.2271 13.8903 37.3765 16.0221 40.2688 16.0221C43.1612 16.0221 45.3088 13.9291 45.3088 11.0756C45.3088 8.22206 43.1788 6.13088 40.2688 6.13088ZM40.4577 15.6426C38.3647 15.6426 37.1665 13.7209 37.1665 10.6962C37.1665 8.12853 38.213 6.51206 40.0765 6.51206C42.1694 6.51206 43.3677 8.45147 43.3677 11.4568C43.3677 14.0632 42.3212 15.6426 40.4577 15.6426ZM26.0312 1.56559H19.8706V1.75441H20.2535C21.09 1.75441 21.4694 2.17441 21.4694 3.295V14.1003C21.4694 15.2226 21.0883 15.6409 20.2518 15.6409H19.8706V15.8315H26.0312C31.2441 15.8315 34.3447 12.8068 34.3447 8.69853C34.3447 4.59029 31.2441 1.56559 26.0312 1.56559ZM26.0312 15.4132H23.333V1.98382H26.0312C30.5206 1.98382 32.3647 4.91324 32.3647 8.69853C32.3647 12.4838 30.5771 15.4132 26.0312 15.4132ZM78.3088 14.1003V9.28794C78.3088 7.13853 76.9959 6.13088 75.0565 6.13088C73.1171 6.13088 71.8606 7.34853 71.2518 8.69853L71.4988 8.81147C72.0883 7.55677 73.2671 6.87206 74.5041 6.87206C75.7412 6.87206 76.5971 7.55677 76.5971 9.535V10.2197C73.6871 11.6085 70.9853 11.5503 70.9853 13.9097C70.9853 15.3744 72.0512 16.0221 73.1912 16.0221C74.3312 16.0221 75.3018 15.4132 76.5971 14.0826V15.8332L76.7488 15.9285C77.7 15.8721 78.7465 15.8332 79.5265 15.8332H79.9077V15.6426H79.5265C78.69 15.6426 78.3088 15.2244 78.3088 14.1021V14.1003ZM76.5971 13.7209C75.57 14.7479 75 15.0338 74.22 15.0338C73.2124 15.0338 72.7359 14.4056 72.7359 13.5497C72.7359 12.2562 73.9341 11.7426 76.5971 10.5056V13.7209ZM128.541 14.1003V9.26853C128.541 7.11735 127.306 6.12912 125.707 6.12912C124.585 6.12912 123.863 6.50853 122.301 8.10735C121.939 6.75735 120.893 6.12912 119.619 6.12912C118.555 6.12912 117.831 6.48912 116.404 7.93618V6.08677L113.284 6.79441V6.985H113.474C114.311 6.985 114.692 7.40324 114.692 8.52559V14.0985C114.692 15.2209 114.312 15.6391 113.474 15.6391H112.92C112.084 15.6391 111.702 15.2209 111.702 14.0985V6.08677L108.582 6.79618V6.98677H108.773C109.609 6.98677 109.991 7.405 109.991 8.52735V14.1003C109.991 15.2226 109.611 15.6409 108.773 15.6409H108.392H108.085C107.248 15.6409 106.867 15.2226 106.867 14.1003V1.375H106.678L103.749 2.04029V2.23088H103.939C104.776 2.23088 105.157 2.64912 105.157 3.77147V14.1003C105.157 15.2226 104.776 15.6409 103.939 15.6409H103.461C102.625 15.6409 102.244 15.2226 102.244 14.1003V1.375H102.055L99.1253 2.04029V2.23088H99.3159C100.152 2.23088 100.534 2.64912 100.534 3.77147V14.1003C100.534 15.2226 100.152 15.6409 99.3159 15.6409H98.9347V15.8315H108.468H118.308V15.6409H117.623C116.786 15.6409 116.405 15.2226 116.405 14.1003V8.24147C117.319 7.46147 118.004 7.27088 118.782 7.27088C119.942 7.27088 120.741 8.05088 120.741 9.89677V14.1003C120.741 15.2226 120.362 15.6409 119.524 15.6409H119.142V15.8315H124.05V15.6409H123.671C122.832 15.6409 122.453 15.2226 122.453 14.1003V9.26853C122.453 8.92618 122.416 8.62088 122.358 8.35441C123.346 7.47912 124.05 7.27088 124.869 7.27088C126.028 7.27088 126.828 8.05088 126.828 9.89677V14.1003C126.828 15.2226 126.446 15.6409 125.61 15.6409H125.229V15.8315H130.136V15.6409H129.757C128.921 15.6409 128.539 15.2226 128.539 14.1003H128.541ZM149.619 15.6409C148.782 15.6409 148.401 15.2226 148.401 14.1003V9.26853C148.401 7.11735 147.071 6.12912 145.376 6.12912C144.254 6.12912 143.455 6.45206 141.971 7.93618V6.085L138.851 6.79441V6.985H139.041C139.878 6.985 140.259 7.40324 140.259 8.52559V14.0985C140.259 15.2209 139.879 15.6391 139.041 15.6391H138.697C137.862 15.6391 137.481 15.2191 137.481 14.0985V9.28618C137.481 7.13677 136.168 6.12912 134.229 6.12912C132.289 6.12912 131.033 7.34677 130.424 8.69676L130.671 8.80971C131.261 7.555 132.439 6.87029 133.676 6.87029C134.914 6.87029 135.769 7.555 135.769 9.53324V10.2179C132.859 11.6068 130.158 11.5485 130.158 13.9079C130.158 15.3726 131.224 16.0203 132.364 16.0203C133.504 16.0203 134.474 15.4115 135.769 14.0809V15.8315L135.921 15.9268C136.872 15.8703 137.919 15.8315 138.699 15.8315H139.08H143.569V15.6409H143.188C142.352 15.6409 141.971 15.2226 141.971 14.1003V8.24147C142.941 7.44382 143.702 7.27088 144.538 7.27088C145.812 7.27088 146.688 8.05088 146.688 9.89677V14.1003C146.688 15.2226 146.306 15.6409 145.47 15.6409H145.089V15.8315H149.996V15.6409H149.617H149.619ZM135.771 13.7209C134.744 14.7479 134.174 15.0338 133.394 15.0338C132.386 15.0338 131.91 14.4056 131.91 13.5497C131.91 12.2562 133.108 11.7426 135.771 10.5056V13.7209ZM98.9277 12.7803L98.5006 13.6679C98.0365 14.725 97.2371 15.4132 95.2394 15.4132H91.3165V8.67912H94.4383C95.8553 8.67912 96.383 9.04794 96.5453 9.82441C96.57 9.92677 96.6424 10.3079 96.6777 10.5056H96.7959V6.43441H96.6777C96.6406 6.63206 96.5647 7.04676 96.54 7.13677C96.3724 7.89912 95.8412 8.26088 94.4383 8.26088H91.3165V2.05971H95.2994C97.1241 2.05971 97.7347 2.64912 97.77 3.535C97.77 3.54029 97.77 3.54735 97.7718 3.55441C97.7806 3.67441 97.7965 3.86853 97.8053 4.00088H97.9606V1.56382H87.8524V1.75618H88.2318C89.07 1.75618 89.4494 2.17618 89.4494 3.29676V14.1974C89.4494 15.2438 89.07 15.6426 88.2318 15.6426H87.8524V15.8315H97.6147C98.07 15.8315 98.1847 15.6426 98.4512 14.7479L99.0212 12.8085L98.9241 12.7821L98.9277 12.7803ZM81.3741 8.01382C81.3741 7.08029 82.0959 6.51206 83.2765 6.51206C84.323 6.51206 85.5406 7.12088 85.7877 9.15559L85.9977 9.13794L85.8777 6.92324C85.7241 6.79088 85.5459 6.685 85.4047 6.61088C84.9283 6.36735 84.2294 6.13265 83.2783 6.13265C81.4324 6.13265 80.2341 7.00794 80.2341 8.52912C80.2341 12.0479 85.3518 11.2891 85.3518 13.9697C85.3518 14.9968 84.5153 15.6444 83.3347 15.6444C81.9847 15.6444 80.8624 15.0356 80.0824 12.7909L79.8741 12.8474L80.3083 15.1238C80.4671 15.2456 80.6841 15.3638 80.8624 15.4538C80.8765 15.4626 80.8924 15.4697 80.9083 15.4768C80.9471 15.4962 80.9824 15.5121 81.0159 15.5297C81.023 15.5332 81.03 15.5368 81.0388 15.5385C81.0653 15.5526 81.0918 15.5632 81.1112 15.5721C81.7377 15.8526 82.4294 16.0256 83.3365 16.0256C85.2194 16.0256 86.4935 14.9032 86.4935 13.1138C86.4935 9.70971 81.3759 10.1085 81.3759 8.01735L81.3741 8.01382ZM62.0506 14.4991H59.1971C58.2847 14.4991 57.9618 14.1762 57.9618 13.7015C57.9618 13.2832 58.4559 12.7503 59.3506 12.3885C59.7688 12.5226 60.2259 12.5985 60.7006 12.5985C62.8306 12.5985 64.41 11.2097 64.41 9.36382C64.41 7.91853 63.4783 6.70088 61.7859 6.26324L65.0735 6.51206V5.06676C62.8677 6.11324 61.6341 5.86441 59.8641 6.20853C58.2283 6.53324 56.9912 7.63618 56.9912 9.36559C56.9912 10.6785 57.7712 11.7426 58.9888 12.2562C57.6194 12.9409 56.5924 13.6644 56.5924 14.5962C56.5924 15.4326 57.2771 15.8509 58.2847 15.985C56.9153 16.6697 56.0965 17.5644 56.0965 18.4397C56.0965 19.5815 57.143 20.5891 59.9188 20.5891C63.0388 20.5891 65.2835 19.0097 65.2835 16.9556C65.2835 15.5668 64.5794 14.5009 62.0488 14.5009L62.0506 14.4991ZM58.7224 8.98265C58.7224 7.555 59.273 6.49088 60.4906 6.49088C61.9747 6.49088 62.6788 7.87971 62.6788 9.74324C62.6788 11.1691 62.1265 12.235 60.8912 12.235C59.4265 12.235 58.7224 10.8462 58.7224 8.98265ZM60.3953 19.5585C58.0553 19.5585 57.2559 18.7979 57.2559 17.8079C57.2559 17.2556 57.5224 16.6468 58.7206 16.0203H61.9553C64.3147 16.0203 64.8459 16.3803 64.8459 17.1038C64.8459 18.5297 62.8871 19.5585 60.3953 19.5585ZM69.0812 14.0985V1.375H68.8924L65.963 2.04029V2.23088H66.1535C66.99 2.23088 67.3712 2.64912 67.3712 3.77147V14.1003C67.3712 15.2226 66.99 15.6409 66.1535 15.6409H65.7724V15.8315H70.68V15.6409H70.2988C69.4624 15.6409 69.0812 15.2226 69.0812 14.1003V14.0985Z" fill="#3B3D47"></path><path d="M56.961 25.639C56.1457 25.639 55.4275 26.0573 55.0745 26.5726V25.7467H54.1534V33.349H55.0745V30.282C55.4292 30.7973 56.1475 31.2155 56.961 31.2155C58.4628 31.2155 59.5887 29.9608 59.5887 28.4273C59.5887 26.8937 58.4628 25.639 56.961 25.639ZM56.8216 30.3684C55.7486 30.3684 54.9987 29.5108 54.9987 28.4273C54.9987 27.3437 55.7486 26.4861 56.8216 26.4861C57.8945 26.4861 58.6445 27.3437 58.6445 28.4273C58.6445 29.5108 57.8945 30.3684 56.8216 30.3684ZM50.3822 25.639C48.7534 25.639 47.5728 26.8831 47.5728 28.4273C47.5728 29.9714 48.7516 31.2155 50.3822 31.2155C52.0128 31.2155 53.181 29.9714 53.181 28.4273C53.181 26.8831 51.9916 25.639 50.3822 25.639ZM50.3822 30.3578C49.2669 30.3578 48.5169 29.5002 48.5169 28.4273C48.5169 27.3543 49.2669 26.4967 50.3822 26.4967C51.4975 26.4967 52.2369 27.3543 52.2369 28.4273C52.2369 29.5002 51.4975 30.3578 50.3822 30.3578ZM31.0939 25.639C29.4104 25.639 28.371 26.8514 28.371 28.4273C28.371 30.0031 29.5075 31.2155 31.0728 31.2155C32.4351 31.2155 33.3245 30.4214 33.5822 29.479H32.6381C32.3063 30.1231 31.7592 30.3808 31.0834 30.3808C30.1075 30.3808 29.3363 29.652 29.3045 28.6761H33.6686C33.7869 27.0137 32.7898 25.6408 31.0957 25.6408L31.0939 25.639ZM29.3469 27.9437C29.5181 26.892 30.3016 26.4526 31.0622 26.4526C31.8669 26.4526 32.5198 26.9467 32.691 27.9437H29.3451H29.3469ZM66.5222 25.639C65.7069 25.639 65.0539 26.089 64.7645 26.7861C64.4963 26.0678 63.9175 25.639 63.1128 25.639C62.3839 25.639 61.8051 26.0043 61.4928 26.5726V25.7467H60.5698V31.1078H61.4928V28.4484C61.4928 27.2361 62.1034 26.4861 62.9716 26.4861C63.6687 26.4861 64.0234 27.0861 64.0234 27.9543V31.1061H64.9463V28.362C64.9781 27.2043 65.5569 26.4861 66.4145 26.4861C67.1116 26.4861 67.4751 27.0861 67.4751 27.9543V31.1061H68.3981V27.8149C68.3981 26.4967 67.6904 25.639 66.5222 25.639ZM23.6557 23.4949H21.4692V31.1078H23.6557C25.9939 31.1078 27.7092 29.4773 27.7092 27.3014C27.7092 25.1255 25.9939 23.4949 23.6557 23.4949ZM23.6557 30.1743H22.4663V24.4267H23.6557C25.4892 24.4267 26.7016 25.6373 26.7016 27.2996C26.7016 28.962 25.4892 30.1726 23.6557 30.1726V30.1743ZM45.6828 31.1078H46.6039V23.0661H45.6828V31.1078ZM42.141 25.639C40.4575 25.639 39.4181 26.8514 39.4181 28.4273C39.4181 30.0031 40.5545 31.2155 42.1198 31.2155C43.4822 31.2155 44.3716 30.4214 44.6292 29.479H43.6851C43.3534 30.1231 42.8063 30.3808 42.1304 30.3808C41.1545 30.3808 40.3834 29.652 40.3516 28.6761H44.7157C44.8339 27.0137 43.8369 25.6408 42.1428 25.6408L42.141 25.639ZM40.3939 27.9437C40.5651 26.892 41.3486 26.4526 42.1092 26.4526C42.9139 26.4526 43.5669 26.9467 43.7381 27.9437H40.3922H40.3939ZM36.5557 29.809L34.7222 25.7449H33.6934L36.1692 31.1061H36.9422L39.4181 25.7449H38.3892L36.5557 29.809ZM78.2257 25.6373C77.5287 25.6373 76.8969 25.9267 76.521 26.5708V25.7449H75.5981V31.1061H76.521V28.4467C76.521 27.192 77.2181 26.4843 78.0757 26.4843C78.8363 26.4843 79.341 27.042 79.341 27.942V31.1043H80.2516V27.8026C80.2516 26.4737 79.4257 25.6355 78.2257 25.6355V25.6373ZM121.419 31.1061H122.342V25.7449H121.419V31.1061ZM72.0528 25.6373C70.3692 25.6373 69.3298 26.8496 69.3298 28.4255C69.3298 30.0014 70.4663 31.2137 72.0316 31.2137C73.3939 31.2137 74.2834 30.4196 74.541 29.4773H73.5969C73.2651 30.1214 72.7181 30.379 72.0422 30.379C71.0663 30.379 70.2951 29.6502 70.2616 28.6743H74.6257C74.7439 27.012 73.7469 25.639 72.0528 25.639V25.6373ZM70.3057 27.942C70.4769 26.8902 71.2604 26.4508 72.021 26.4508C72.8257 26.4508 73.4787 26.9449 73.6516 27.942H70.3057ZM119.139 24.2537H118.216V25.7449H117.079V26.592H118.216V29.5196C118.216 30.6349 118.913 31.1608 119.857 31.1608C120.189 31.1608 120.457 31.1078 120.683 31.032V30.2061C120.512 30.2802 120.254 30.3137 120.028 30.3137C119.439 30.3137 119.139 30.0878 119.139 29.4031V26.5937H120.683V25.7467H119.139V24.2555V24.2537ZM114.261 25.6373C112.577 25.6373 111.538 26.8496 111.538 28.4255C111.538 30.0014 112.675 31.2137 114.24 31.2137C115.602 31.2137 116.492 30.4196 116.749 29.4773H115.805C115.473 30.1214 114.926 30.379 114.25 30.379C113.275 30.379 112.503 29.6502 112.47 28.6743H116.834C116.952 27.012 115.955 25.639 114.261 25.639V25.6373ZM112.514 27.942C112.685 26.8902 113.469 26.4508 114.229 26.4508C115.034 26.4508 115.687 26.9449 115.86 27.942H112.514ZM133.735 25.7449V26.5708C133.359 26.0237 132.674 25.6373 131.869 25.6373C130.367 25.6373 129.242 26.839 129.242 28.3602C129.242 29.8814 130.367 31.0937 131.869 31.0937C132.674 31.0937 133.36 30.6967 133.735 30.1496V30.7814C133.735 31.9937 133.016 32.6361 132.04 32.6361C131.172 32.6361 130.572 32.3149 130.325 31.5967H129.425C129.596 32.6696 130.583 33.4514 132.019 33.4514C133.456 33.4514 134.657 32.562 134.657 30.7708V25.7414H133.735V25.7449ZM131.998 30.2378C130.925 30.2378 130.186 29.4437 130.186 28.362C130.186 27.2802 130.925 26.4861 131.998 26.4861C133.071 26.4861 133.81 27.2908 133.81 28.362C133.81 29.4331 133.071 30.2378 131.998 30.2378ZM126.302 25.6373C125.605 25.6373 124.973 25.9267 124.597 26.5708V25.7449H123.674V31.1061H124.597V28.4467C124.597 27.192 125.294 26.4843 126.152 26.4843C126.912 26.4843 127.417 27.042 127.417 27.942V31.1043H128.327V27.8026C128.327 26.4737 127.502 25.6355 126.302 25.6355V25.6373ZM121.893 22.999C121.517 22.999 121.228 23.299 121.228 23.6537C121.228 24.0296 121.517 24.3084 121.893 24.3084C122.269 24.3084 122.537 24.0296 122.537 23.6537C122.537 23.299 122.269 22.999 121.893 22.999ZM91.5916 27.2873L88.7716 23.4914H87.861V31.1043H88.8581V25.1855L91.6022 28.8737L94.3463 25.1855V31.1043H95.3328V23.4914H94.4328L91.5916 27.2873ZM82.8422 24.252H81.9192V25.7431H80.7828V26.5902H81.9192V29.5178C81.9192 30.6331 82.6163 31.159 83.5604 31.159C83.8922 31.159 84.1604 31.1061 84.3863 31.0302V30.2043C84.2151 30.2784 83.9575 30.312 83.7316 30.312C83.1422 30.312 82.8422 30.0861 82.8422 29.4014V26.592H84.3863V25.7449H82.8422V24.2537V24.252ZM111.259 25.7431H110.036L107.698 27.8343V23.0626H106.775V31.1043H107.698V28.4237L110.605 31.1043H111.849L108.621 28.1131L111.259 25.7431ZM104.167 26.7826V25.7431H103.246V31.1043H104.167V28.4449C104.167 27.1902 104.906 26.6008 105.582 26.6008C105.764 26.6008 105.914 26.6114 106.087 26.6873V25.7326C105.947 25.7008 105.808 25.6902 105.669 25.6902C105.058 25.6902 104.372 26.0978 104.167 26.7843V26.7826ZM100.99 26.569C100.637 26.0537 99.9175 25.6355 99.104 25.6355C97.6022 25.6355 96.4763 26.8902 96.4763 28.4237C96.4763 29.9573 97.6022 31.212 99.104 31.212C99.9193 31.212 100.637 30.7937 100.99 30.2784V31.1043H101.913V25.7431H100.99V26.569ZM99.2434 30.3649C98.1598 30.3649 97.4098 29.5073 97.4098 28.4237C97.4098 27.3402 98.1598 26.4826 99.2434 26.4826C100.327 26.4826 101.066 27.3402 101.066 28.4237C101.066 29.5073 100.316 30.3649 99.2434 30.3649Z" fill="#3B3D47"></path></g><defs><clipPath id="clip0_126_603"><rect width="150" height="33.4571" fill="white"></rect></clipPath></defs></svg> 